<svg xmlns="http://www.w3.org/2000/svg" xmlns:xlink="http://www.w3.org/1999/xlink" viewBox="0 0 61.65 64.54"><defs><style>.cls-1{isolation:isolate;}.cls-2{mix-blend-mode:multiply;opacity:0.8;fill:url(#radial-gradient);}.cls-3{fill:url(#Degradado_sin_nombre_10);}.cls-4{fill:#fff;}</style><radialGradient id="radial-gradient" cx="31.96" cy="34.86" r="29.68" gradientUnits="userSpaceOnUse"><stop offset="0" stop-color="#000057"/><stop offset="0.39" stop-color="#7575a4" stop-opacity="0.54"/><stop offset="0.79" stop-color="#d9d9e6" stop-opacity="0.15"/><stop offset="1" stop-color="#fff" stop-opacity="0"/></radialGradient><linearGradient id="Degradado_sin_nombre_10" x1="6.98" y1="6.98" x2="40.68" y2="40.68" gradientUnits="userSpaceOnUse"><stop offset="0" stop-color="#007bb8"/><stop offset="1" stop-color="#0044e9"/></linearGradient></defs><g class="cls-1"><g id="Layer_2" data-name="Layer 2"><g id="ELEMENTS"><circle class="cls-2" cx="31.96" cy="34.86" r="29.68"/><circle class="cls-3" cx="23.83" cy="23.83" r="23.83"/><path class="cls-4" d="M14.28,18.25h4.1V31.41h-4.1Zm2-6.54A2.37,2.37,0,1,1,14,14.08a2.37,2.37,0,0,1,2.37-2.37"/><path class="cls-4" d="M21,18.25h3.92v1.8h.06a4.3,4.3,0,0,1,3.87-2.13c4.14,0,4.91,2.73,4.91,6.27v7.22H29.62V25c0-1.52,0-3.49-2.13-3.49S25,23.19,25,24.9v6.51H21Z"/></g></g></g></svg>