<?xml version="1.0" encoding="utf-8"?>
<!-- Generator: Adobe Illustrator 25.4.1, SVG Export Plug-In . SVG Version: 6.00 Build 0)  -->
<svg version="1.1" id="Layer_1" xmlns="http://www.w3.org/2000/svg" xmlns:xlink="http://www.w3.org/1999/xlink" x="0px" y="0px"
	 viewBox="0 0 512 512" style="enable-background:new 0 0 512 512;" xml:space="preserve">
<style type="text/css">
	.st0{fill:#86C305;}
	.st1{fill:#FEFEFE;}
</style>
<path class="st0" d="M0,0h210.1H302h210v210.6v90V512H301.3h-90.9H0V301.4v-88.9V0z M450.1,314.6c-2.7,7.4-5.5,14.7-8.9,21.7
	c-2.5,5.1-5.4,10-7.9,15.1c2.3,2.8,4.4,5.8,6.7,8.6l15.5,19.9c3.3,4.3,6.6,8.6,9.8,13c1.4,2,3.4,4.1,4.4,6.3c0.5,1,0.6,2.7,0.5,3.8
	c-0.2,1.6-0.9,3-1.9,4.3c-2.8,3.4-6.1,6.4-9.2,9.6l-20.8,20.7c-8.2,8.3-16.4,16.6-24.8,24.7c-2.6,2.5-4.9,5.4-7.7,7.5
	c-1.3,1-3.3,1.2-4.9,0.9c-1.5-0.3-3.3-1.4-4.5-2.3c-2.2-1.6-4.2-3.4-6.3-5.1c-2.9-2.3-5.9-4.6-8.9-6.9l-16.9-13c-3.9-3-8-5.9-11.8-9
	c-6.8,3.4-13.7,6.9-20.8,9.7c-3.6,1.4-7.3,2.8-11,4.2c-2.1,0.8-4.4,1.4-6.4,2.4c-1.4,4.9-1.6,10.4-2.2,15.5l-3.5,28.7
	c-0.4,3.6-0.5,8.2-1.8,11.5c-1,2.5-3.2,4.3-5.5,5.6H512V300.7c-2.7,3.8-4.8,6.1-9.6,6.9c-8.8,1.5-17.7,2.3-26.5,3.5
	C467.4,312.3,458.7,313.9,450.1,314.6z M0,301.4V512h210.3c-1.1-0.8-2.3-1.5-3.2-2.4c-1-0.9-1.8-2-2.2-3.3c-0.8-2.8-1-5.8-1.4-8.7
	c-0.5-4.4-1.1-8.7-1.7-13.1l-2.9-21.9c-0.6-4.1-1.3-8.2-1.6-12.4c-12.1-4.4-24.8-8.9-36.1-15.2c-8.2,4.9-46.6,34-50.4,34.8
	c-2.1,0.4-4.5-0.2-6.3-1.4c-3-2.1-5.8-5.4-8.4-8l-15.8-15.8l-25.7-25.6c-3.4-3.4-7.2-6.6-10.4-10.2c-1-1.1-1.9-2.1-2.2-3.7
	c-0.4-2,0.2-4.7,1.1-6.5c1.3-2.5,3.2-4.8,4.8-7.2l6.8-9.5c7.5-10.6,14.8-21.4,22.5-31.8c-5.7-9.2-12.5-24.9-15.6-35.4l-35.1-4.8
	c-5.9-0.8-12-1.3-17.9-2.4C4,306.7,2.7,305.3,0,301.4z M302,0c4,3.1,5.3,4.2,6,9.4c1.6,12.4,2.9,24.9,4.5,37.4
	c0.6,4.8,0.8,9.8,1.8,14.5c12.4,5,25.2,9.5,36.8,16.3c3.7-2.7,7.3-5.6,11-8.3l23.7-18.1c4-3,8.2-6.9,12.6-9.3
	c1.5-0.8,2.7-1.1,4.4-0.8c1.9,0.3,3.3,1.2,4.7,2.4c3.9,3.3,7.4,7.1,11,10.7l21.2,21.3l20.7,20.5c2.8,2.9,6.5,5.9,8.7,9.2
	c1.1,1.7,1.6,4.2,1.1,6.2c-1,4.5-9.3,14.1-12.2,18.1c-3.9,5.1-7.5,10.4-11.4,15.5c-4,5.2-8.4,10.5-11.8,16.1
	c4.1,7.5,8.2,14.8,11.3,22.8c1.7,4.3,2.7,8.9,4.3,13.2c4.8,1.3,10.2,1.5,15.1,2.2c9.6,1.3,19.2,2.6,28.9,3.8
	c3.7,0.5,9.1,0.4,12.5,1.9c2.5,1.1,3.9,3.2,5.3,5.3V0H302z M0,0v212.5c1.1-1.5,1.9-3.2,3.1-4.7c1.1-1.3,2.5-2.4,4.1-3
	c4.2-1.5,13.4-2.3,18.2-3c11.6-1.7,23.3-3.7,34.9-4.7c3.1-7.9,6.1-15.8,9.8-23.5c2.2-4.5,4.7-8.9,7.1-13.2
	c-5.9-6.6-10.7-14.6-15.9-21.8c-3.6-4.9-16.9-21.4-18.5-25.6c-0.9-2.4-0.7-5.8,0.5-8c1.8-3.4,9.2-9.8,12.2-12.9
	c5.9-6,11.8-12.1,17.8-18L91,56.2c3.8-4,7.6-8.1,11.7-11.9c1.1-1,2.2-1.8,3.7-2.3c1.9-0.6,3.5-0.4,5.3,0.4c3.7,1.7,6.9,4.8,10.1,7.2
	L146,67.3c4.6,3.4,9.4,7.5,14.4,10.2l0.3,0.2c4.6-2,9-4.6,13.5-6.7c7.5-3.5,15.2-6.4,22.9-9.2c2.8-17.7,4.5-35.6,7.1-53.3
	c0.7-4.5,2.2-5.9,5.7-8.5H0z"/>
<path class="st1" d="M254.4,100.1c0.4,0,0.7,0,1.1,0c6.6-0.1,13.3,0.4,19.8,1.2c34.1,4.6,65.9,20,90.6,44c5.2,5,10.1,10.8,14.5,16.5
	c21.4,27.6,31.9,59.6,32.6,94.5c0.2,11.1-1.1,22.2-3.5,33c-6.2,28.9-19.3,54-39.8,75.3c-29.8,31.2-68.7,47.7-111.7,48.6
	c-41,0.6-80.7-14.9-110.5-43.2c-30-28.4-47.4-67.5-48.6-108.7c-1-41.6,14.5-81.9,43-112.1c25-26.5,58.5-43.5,94.7-47.9
	C242.5,100.6,248.4,100.3,254.4,100.1z"/>
<path class="st0" d="M255.2,160.8c3.1-0.4,7.1,0.9,9.7,2.7c3.9,2.6,6.3,7.1,7.2,11.6c1.3,6.8,1,16.5-3,22.3
	c-2.7,3.9-6.4,6.3-11.1,7.2c-3.5,0.3-7.1-0.6-10-2.6c-4-2.8-6.5-7.3-7.3-12.1c-0.4-2.4-0.4-4.8-0.4-7.2c0-5.7,0.2-10.5,3.6-15.3
	C246.6,163.4,250.5,161.6,255.2,160.8z"/>
<path class="st0" d="M256,307.1c2.4,0.1,4.5,0.7,6.2,2.5c1.2,1.3,1.9,2.7,2.1,4.4c0.4,3.1,0.2,6.3,0.2,9.4l0,16.1l0,53
	c-2.7,0.1-5.4,0.2-8.1,0.2c-3-0.1-6-0.1-8.9-0.2l0-54.6l0-15c0-2.8-0.2-5.7,0.1-8.5c0.2-1.4,0.7-2.7,1.6-3.8
	C251,308.4,253.2,307.4,256,307.1z"/>
<path class="st0" d="M236.3,207.5c13.6,0.3,27.2,0.1,40.8,0.1c7.8,9.4,16.1,18.7,23.5,28.4c-1.8,4.9-4.5,9.5-6.9,14.2
	c-3.9,7.2-7.7,14.5-11.5,21.8l-5.8,0l-47.1,0c-4.1-8.2-8.1-16.6-12.1-24.9c-1.8-3.7-4.2-7.5-5.4-11.5c2.4-4.2,10.9-13,14.3-16.9
	C229.4,215,232.5,210.6,236.3,207.5z"/>
<path class="st1" d="M239.8,227.7l0.2,0.1c0.9,1.3,0.3,25.8,0.3,29.7l-2.9-5.8c-2.4-4.5-4.4-9.1-6.7-13.6
	C233.9,235.2,236.9,231,239.8,227.7z"/>
<path class="st1" d="M271.6,226.8c2.3,0.9,7.9,9.1,10,11.4c-2.3,3.9-4.3,8.1-6.3,12.1c-1.3,2.3-2.5,4.7-3.7,7.1
	C271.5,247.3,271.3,237,271.6,226.8z"/>
<path class="st0" d="M247.4,120.6c3.3-0.4,6.8-0.2,10-0.2c21.6,0.3,42.9,5.8,61.9,16.2c4.5,2.4,8.8,5.2,13,8.1
	c24.7,16.9,43.8,41.3,52.6,70.1c11.1,36.5,8,73.5-10,107.1c-13.9,25.4-35.6,45.7-61.9,57.8c-7.4,3.4-14.9,5.9-22.6,8.2
	c0.2-5.5,0-11.1,0-16.6l0-32.1c0-19.9,0.5-39.9-0.1-59.7c2.8-1.5,5.6-4,8.1-6c17.3-14.3,28.3-33.5,30.4-55.9
	c2-19.4-3.9-38.9-16.3-54c-12.5-15.1-30-25.1-49.7-26.9c-5.5-0.8-11.8-0.5-17.3,0.2c-19.4,2.5-37,12.5-49,27.9
	c-12.2,15.7-16.5,36.2-14,55.7c2.4,18.4,12.9,36,26.3,48.6c4,3.7,8.4,6.9,12.8,10.2l0.2,108.7c-4.2-0.8-8.3-2.3-12.4-3.8
	c-15.7-5.8-30.2-14.3-42.9-25.2c-25.5-22.2-43.8-55.6-46.2-89.6c-2-28.6,3.7-56,18.1-81c4.1-7.1,8.5-13.6,13.8-19.7
	c5.8-6.6,11.9-12.8,18.7-18.3C192.9,132.9,219.5,122.6,247.4,120.6z"/>
</svg>
