<svg xmlns="http://www.w3.org/2000/svg" version="1.1" xmlns:xlink="http://www.w3.org/1999/xlink" width="512" height="512" x="0" y="0" viewBox="0 0 128 128" style="enable-background:new 0 0 512 512" xml:space="preserve" class=""><g><path d="M43.8 41.6h11.6V37c0-3.2-2.6-5.8-5.8-5.8s-5.8 2.6-5.8 5.8zM85.5 66.6c-1.1 1.3-2.7 2.2-4.5 2.2h-5.3c-1.8 0-3.5-.9-4.5-2.2-1.1 1.3-2.7 2.2-4.5 2.2h-5.3c-3.3 0-5.9-2.6-5.9-5.9v-4.2H45.1v11.4c6.6.4 12.4 4.1 15.8 9.4 3.9-4.7 9.6-7.4 15.7-7.4.8 0 1.4.6 1.4 1.4s-.6 1.4-1.4 1.4c-5.7 0-11 2.7-14.3 7.3 1.2 2.6 1.8 5.4 1.8 8.4 0 .8-.6 1.4-1.4 1.4s-1.4-.6-1.4-1.4c0-9.7-7.9-17.7-17.7-17.7-.8 0-1.4-.6-1.4-1.4v-14c0-.8.6-1.4 1.4-1.4h14.5c1.6 0 3-.6 4.1-1.7 1.1-1 1.7-2.5 1.7-3.9 0-1.5-.6-2.9-1.7-4-1.2-1.2-2.8-1.9-4.5-1.9H37.2c-4.3 0-7.7 3.5-7.7 7.7v29.1c0 8.2 4.8 15.7 12.2 19.2 2.7 1.3 5.8 2 9 2 .8 0 1.4.6 1.4 1.4s-.6 1.4-1.4 1.4c-2.9 0-5.6-.6-8.1-1.5V128h39.1v-24.4c-2.5.9-5.3 1.5-8.1 1.5-.8 0-1.4-.6-1.4-1.4s.6-1.4 1.4-1.4c3 0 5.9-.6 8.5-1.8v.1c.4-.4 12.6-5.1 12.6-19.5V68.8h-4.6c-1.9 0-3.5-.8-4.6-2.2z" fill="#86c305" opacity="1" data-original="#000000" class=""></path><path d="M66.8 50.3c-.1 2.2-.9 4.3-2.5 5.8-1.6 1.6-3.7 2.5-6 2.5h-.1v4.2c0 1.8 1.4 3.2 3.2 3.2h5.3c1.8 0 3.2-1.4 3.2-3.2V31.5c0-3.1-2.5-5.8-5.8-5.8-3.2 0-5.8 2.6-5.8 5.8v10c2.3.1 4.5 1.1 6.2 2.7 1.5 1.8 2.3 3.9 2.3 6.1zM92.7 36c-3.2 0-5.8 2.6-5.8 5.8v21.1c0 1.8 1.4 3.2 3.2 3.2h5.3c1.8 0 3.2-1.4 3.2-3.2V41.8c-.1-3.1-2.6-5.8-5.9-5.8zM75.7 66.1H81c1.8 0 3.2-1.4 3.2-3.2V37c0-3.2-2.6-5.8-5.8-5.8s-5.8 2.6-5.8 5.8v25.9c-.1 1.8 1.4 3.2 3.1 3.2zM126.4 62.4h-8.9c-.8 0-1.4.6-1.4 1.4s.6 1.4 1.4 1.4h8.9c.8 0 1.4-.6 1.4-1.4s-.6-1.4-1.4-1.4zM11.8 63.8c0-.8-.6-1.4-1.4-1.4H1.6c-.8 0-1.4.6-1.4 1.4s.6 1.4 1.4 1.4h8.9c.7-.1 1.3-.7 1.3-1.4zM64 11.6c.8 0 1.4-.6 1.4-1.4V1.4C65.4.6 64.8 0 64 0s-1.4.6-1.4 1.4v8.9c0 .7.6 1.3 1.4 1.3zM107.2 18.7l-6.3 6.3c-.5.5-.5 1.4 0 1.9s1.4.5 1.9 0l6.3-6.3c.5-.5.5-1.4 0-1.9-.5-.6-1.4-.6-1.9 0zM20.8 18.7c-.5-.5-1.4-.5-1.9 0s-.5 1.4 0 1.9l6.3 6.3c.5.5 1.4.5 1.9 0s.5-1.4 0-1.9zM42.2 14.8c.3.7 1.1 1 1.8.7s1-1.1.7-1.8l-3.4-8.2c-.3-.7-1.1-1-1.8-.7s-1 1.1-.7 1.8zM84 15.6c.7.3 1.5 0 1.8-.7l3.4-8.2c.3-.7 0-1.5-.7-1.8s-1.5 0-1.8.7l-3.4 8.2c-.4.7 0 1.5.7 1.8zM113.5 44.6c.5 0 .2 0 8.7-3.5.7-.3 1-1.1.7-1.8s-1.1-1-1.8-.7L113 42c-.7.3-1 1.1-.7 1.8.1.5.6.8 1.2.8zM14 83l-8.2 3.4c-.7.3-1 1.1-.7 1.8.2.5.7.8 1.2.8s.2 0 8.7-3.5c.7-.3 1-1.1.7-1.8-.2-.6-1-1-1.7-.7zM122.2 86.4 114 83c-.7-.3-1.5 0-1.8.7s0 1.5.7 1.8c8.7 3.6 8.2 3.5 8.7 3.5s1-.3 1.3-.8c.3-.7 0-1.5-.7-1.8zM5.8 41.2c8.7 3.6 8.2 3.5 8.7 3.5s1-.3 1.3-.8c.3-.7 0-1.5-.7-1.8l-8.2-3.4c-.7-.3-1.5 0-1.8.7s0 1.5.7 1.8z" fill="#86c305" opacity="1" data-original="#000000" class=""></path></g></svg>