<?xml version="1.0" encoding="utf-8"?>
<!-- Generator: Adobe Illustrator 25.4.1, SVG Export Plug-In . SVG Version: 6.00 Build 0)  -->
<svg version="1.1" id="Layer_1" xmlns="http://www.w3.org/2000/svg" xmlns:xlink="http://www.w3.org/1999/xlink" x="0px" y="0px"
	 viewBox="0 0 512 512" style="enable-background:new 0 0 512 512;" xml:space="preserve">
<style type="text/css">
	.st0{fill:#86C305;}
</style>
<path class="st0" d="M27.6,285.3c8.6-0.5,17.2-0.2,25.8-0.3l40,0l14.4,0.1c3.7,0,7.4,0.2,11-0.3c3.6-0.5,7.2-2,10-4.4
	c3.5-3,6.4-6.8,9.6-10.1c6.7-6.9,13.2-13.9,19.7-21c5.4-5.9,10.6-12,16.4-17.4l45.9,89.1l17.6,34.2c2.2,4.2,4,9.1,6.8,13
	c2,2.7,5,4.7,8.2,5.7c4.6,1.5,9.9,1.1,14.2-1.1c2.7-1.4,5-3.7,6.7-6.2c2-3,3.5-6.4,5.2-9.6c2.6-4.9,5.2-9.8,7.9-14.6
	c14.4-25.8,28.1-51.9,42.1-77.9c1.4-2.5,3.8-8.1,5.5-10c0.4-0.4,0.7-0.6,1.2-0.5c3,0.6,31.9,25,38.8,28.6c2.6,1.4,5.9,2,8.8,2.2
	c4.6,0.4,9.4,0.2,14,0.2l18.6,0.1c23.2-0.2,46.4-0.3,69.6-0.1c-5.6,11.2-12.1,21.5-19.2,31.8c-27.4,40.1-61.8,72.9-98.2,104.7
	c-18.4,16.2-37.2,31.9-56.4,47.1L271,500.3c-3.3,2.6-6.5,5.1-9.8,7.6c-1.7,1.3-3.7,2.6-5.3,4.1h-0.2c-2.5-3-16.5-13-20.1-15.7
	c-4.6-3.5-9.1-7.1-13.7-10.7c-6.1-4.7-12.3-9.2-18.3-13.9C156.2,434.5,109.8,395.2,71,349c-5.1-6.1-9.9-12.5-14.8-18.8
	C46,316.9,34.1,300.7,27.6,285.3z"/>
<path class="st0" d="M0,0h137.9h15.8h200.8h23.7H512v172.3V191c-1.2,2.5-1,6-1.1,8.7c-0.6,15.1-4.4,30.9-8.5,45.4l-71.8-0.1
	c-11.9,0-24,0.5-35.9,0.1c-1.2,0-2.5-0.1-3.6-0.6c-3.5-1.7-7.4-5.7-10.5-8.2c-8.6-7-17.3-13.8-26.1-20.6
	c-4.8-3.7-13.9-11.9-19.3-13.9c-6.6-2.5-14.5-1.3-19.6,3.7c-3.8,3.8-9.6,16-12.5,21.3l-30.4,54.7l-9.6,17.2
	c-1.4,2.4-2.7,5.1-4.3,7.4l-0.2-0.2c-2.8-4.6-5-9.6-7.6-14.4c-4.7-8.9-9.4-17.7-13.9-26.7c-7.9-15.5-16.2-30.7-24-46.2
	c-3.4-6.7-7-13.4-10.5-20.1c-2.5-4.9-4.8-10.6-8.2-14.9c-2.4-3.1-6-5.3-9.8-6.3c-4.5-1.1-9.6-0.6-13.6,1.9
	c-4.6,2.8-10.8,10.6-14.7,14.8c-9.9,10.6-20,21-29.9,31.6l-12.1,13c-1.9,2-3.6,4.3-5.6,6.1c-5.5,0.6-11.2,0.3-16.7,0.3l-30.1,0
	l-34,0c-6.1,0-12.4,0.4-18.5-0.1c-3.2-11.4-5.6-22.7-7.3-34.4c-0.4-2.6-0.7-5.1-1-7.7c-0.3-3.5-0.1-7.7-1.3-11v-26.9V0z M387.1,91.9
	c-14.3,0.5-27,7.1-36.6,17.4c-9.1,9.7-13.5,23.6-13,36.8c0.5,13.8,7.1,26.7,17.2,36c10.4,9.5,22.9,13.4,36.8,12.7l0.2,0
	c3.9-0.4,7.8-0.9,11.6-1.9c9.6-2.7,19.3-8.8,25.6-16.5c9.2-11.2,12.8-24.1,11.4-38.4c-1.4-13.6-8.1-26-18.7-34.6
	C411.9,95.4,399.8,91.1,387.1,91.9z M378.2,0c0.1,0.1,0.2,0.1,0.3,0.2c2,1.1,7.3,1.1,9.9,1.7c6.9,1.6,13.8,3.5,20.4,6.3
	c32.3,13.9,56.1,37.2,74.1,67.1c6.4,10.4,11.7,21.3,16,32.7c5.4,14.9,9.2,30.3,11.3,46c0.4,2.8,0.7,5.6,0.8,8.4
	c0.1,2.6,0,5.3,0.4,7.9c0.1,0.7,0.2,1.4,0.7,2.1V0H378.2z M0,0v164.9c1.4-3.6,1.2-8.3,1.7-12.2c0.4-3.4,1.1-6.9,1.7-10.3
	c3.4-19.7,9.9-38.8,19.2-56.5c18.6-36.1,48.9-67,87.9-80.3c5.5-1.9,11.3-3.4,17.1-4.3c3.1-0.5,6.9-0.2,9.9-1.2
	c0.2-0.1,0.3-0.1,0.5-0.2H0z M153.7,0c0.1,0.1,0.3,0.1,0.4,0.2c2.8,1.2,7,1,10,1.5c5.1,0.9,10.2,2.3,15.1,4
	c22.8,8,43.4,24.1,59.3,42c6.2,7,11.9,14.6,17.4,22.2c3.7-5.5,7.8-10.7,12-15.8C288.4,28.9,313.6,8,346.3,1.6
	c2.7-0.5,5.8-0.8,8.3-1.6H153.7z"/>
</svg>
