<svg width="33" height="35" viewBox="0 0 33 35" fill="none" xmlns="http://www.w3.org/2000/svg">
<path style="mix-blend-mode:multiply" opacity="0.8" d="M16.6346 35C25.2081 35 32.1584 28.0498 32.1584 19.4762C32.1584 10.9026 25.2081 3.9524 16.6346 3.9524C8.06101 3.9524 1.11076 10.9026 1.11076 19.4762C1.11076 28.0498 8.06101 35 16.6346 35Z" fill="url(#paint0_radial_27_28)"/>
<path d="M12.4665 24.933C19.3515 24.933 24.933 19.3515 24.933 12.4665C24.933 5.58144 19.3515 0 12.4665 0C5.58144 0 0 5.58144 0 12.4665C0 19.3515 5.58144 24.933 12.4665 24.933Z" fill="url(#paint1_linear_27_28)"/>
<path d="M15.9012 8.29302C15.7509 8.29302 15.6039 8.33761 15.4789 8.42115C15.3538 8.50469 15.2564 8.62343 15.1988 8.76236C15.1413 8.90128 15.1262 9.05415 15.1556 9.20163C15.1849 9.34911 15.2573 9.48458 15.3636 9.59091C15.47 9.69723 15.6054 9.76964 15.7529 9.79898C15.9004 9.82831 16.0533 9.81326 16.1922 9.75572C16.3311 9.69817 16.4499 9.60072 16.5334 9.4757C16.6169 9.35067 16.6615 9.20368 16.6615 9.05331C16.6615 8.85167 16.5814 8.65828 16.4388 8.5157C16.2963 8.37312 16.1029 8.29302 15.9012 8.29302Z" fill="white"/>
<path d="M12.5204 9.26899C11.8876 9.26792 11.2686 9.45468 10.7419 9.80562C10.2153 10.1566 9.80463 10.6559 9.56195 11.2404C9.31927 11.8249 9.25549 12.4682 9.3787 13.089C9.5019 13.7097 9.80655 14.28 10.254 14.7275C10.7016 15.175 11.2718 15.4796 11.8925 15.6028C12.5133 15.726 13.1567 15.6622 13.7411 15.4196C14.3256 15.1769 14.825 14.7662 15.1759 14.2396C15.5268 13.7129 15.7136 13.094 15.7125 12.4611C15.7111 11.6149 15.3743 10.8038 14.776 10.2055C14.1777 9.60718 13.3666 9.27041 12.5204 9.26899ZM12.5204 14.5101C12.1149 14.5112 11.7183 14.3919 11.3806 14.1674C11.0429 13.9429 10.7795 13.6233 10.6236 13.249C10.4676 12.8746 10.4263 12.4625 10.5047 12.0647C10.5832 11.6669 10.7779 11.3013 11.0643 11.0142C11.3506 10.7271 11.7157 10.5314 12.1133 10.4519C12.5109 10.3724 12.9232 10.4126 13.2979 10.5676C13.6726 10.7225 13.9929 10.9851 14.2183 11.3222C14.4437 11.6593 14.564 12.0556 14.564 12.4611C14.564 13.0036 14.3489 13.5239 13.9658 13.9081C13.5827 14.2922 13.0629 14.5087 12.5204 14.5101Z" fill="white"/>
<path d="M15.0547 18.9478H9.8729C8.83989 18.9463 7.84968 18.535 7.11974 17.804C6.3898 17.0731 5.97981 16.0823 5.97981 15.0493V9.8729C5.97981 8.83989 6.3898 7.84912 7.11974 7.11817C7.84968 6.38722 8.83989 5.97585 9.8729 5.97442H15.0547C16.0882 5.97585 17.0789 6.38704 17.8097 7.11784C18.5405 7.84863 18.9517 8.8394 18.9532 9.8729V15.0493C18.9517 16.0828 18.5405 17.0736 17.8097 17.8044C17.0789 18.5352 16.0882 18.9463 15.0547 18.9478ZM9.8729 7.19843C9.15786 7.19843 8.47211 7.48247 7.96651 7.98808C7.4609 8.49368 7.17686 9.17943 7.17686 9.89447V15.0709C7.17686 15.7859 7.4609 16.4716 7.96651 16.9773C8.47211 17.4829 9.15786 17.7669 9.8729 17.7669H15.0547C15.7697 17.7669 16.4555 17.4829 16.9611 16.9773C17.4667 16.4716 17.7507 15.7859 17.7507 15.0709V9.89447C17.7507 9.17943 17.4667 8.49368 16.9611 7.98808C16.4555 7.48247 15.7697 7.19843 15.0547 7.19843H9.8729Z" fill="white"/>
<defs>
<radialGradient id="paint0_radial_27_28" cx="0" cy="0" r="1" gradientUnits="userSpaceOnUse" gradientTransform="translate(16.6346 19.4762) scale(15.5238)">
<stop stop-color="#000057"/>
<stop offset="0.39" stop-color="#7575A4" stop-opacity="0.54"/>
<stop offset="0.79" stop-color="#D9D9E6" stop-opacity="0.15"/>
<stop offset="1" stop-color="white" stop-opacity="0"/>
</radialGradient>
<linearGradient id="paint1_linear_27_28" x1="3.65044" y1="3.65044" x2="21.2772" y2="21.2772" gradientUnits="userSpaceOnUse">
<stop stop-color="#FFE185"/>
<stop offset="0.21" stop-color="#FFBB36"/>
<stop offset="0.38" stop-color="#FF5176"/>
<stop offset="0.52" stop-color="#F63395"/>
<stop offset="0.74" stop-color="#A436D2"/>
<stop offset="1" stop-color="#5F4EED"/>
</linearGradient>
</defs>
</svg>
