<?xml version="1.0" encoding="utf-8"?>
<!-- Generator: Adobe Illustrator 25.4.1, SVG Export Plug-In . SVG Version: 6.00 Build 0)  -->
<svg version="1.1" id="Layer_1" xmlns="http://www.w3.org/2000/svg" xmlns:xlink="http://www.w3.org/1999/xlink" x="0px" y="0px"
	 viewBox="0 0 512 512" style="enable-background:new 0 0 512 512;" xml:space="preserve">
<style type="text/css">
	.st0{fill:#86C305;}
	.st1{fill:#2E3136;}
	.st2{fill:#FEFEFE;}
</style>
<path class="st0" d="M0,0h252.3h6.4H512v93.9v269.8v44.3v0.2V512H257.5h-3.5H0V409.7v-2.2v-44.2V176.6v-20.3V93V0z M0.3,403.7
	c0.1,1.4,0.1,2.5-0.3,3.8v2.2V512h254.1h3.5H512V408.1v-0.2c-0.8-1.1-0.5-3-0.5-4.3c-0.3-0.2-0.7-0.4-1.1-0.5
	c-22.7-10-48.8-15.6-73.5-17c-8.7-0.5-17.4-0.9-26.1-0.5c-42,1.9-82,18.2-113.3,46.2c-6.6,5.9-13,12.6-18.6,19.5
	c-2.7,3.4-5,7.3-8.1,10.3c-1.6,1.6-3.6,2.8-5.7,3.6c-6.3,2.4-15.8,2.1-21.6-1.6c-4.2-2.6-6.9-7.7-9.8-11.6c-1.6-2.2-3.3-4.3-5.1-6.3
	c-16.8-19.1-37.5-34.3-60.7-44.7c-51.1-22.5-103-19.4-154.9-1.7C8.9,400.8,4.5,402.1,0.3,403.7z M258.7,0l0.4,0.3
	c3.6,2.4,7.3,3.7,8.4,8.5c1.2,5.3,0.5,11.9,0.5,17.5L268,53.2c6.1,2.9,9.3,6.4,12.8,12.1c17.3,3.5,29.8,9.7,42.6,21.9
	c3.1,3,6.2,6.3,9.1,9.6c1.4,1.6,2.7,3.4,4.2,4.8c0.3,0.3,1.1,1.1,1.6,1.1c0.7,0,1.8-0.9,2.4-1.3c5-3.3,9.8-6.6,15.1-9.4
	c33.3-18.1,73.6-25.7,111-18.5c9.8,1.9,19.5,4.5,29,7.6c3.1,1,6.5,1.9,9.4,3.4c1.6,0.8,3,1.9,4.1,3.3c1.3,1.9,1.5,4.4,2.8,6.2V0
	H258.7z M0,0v93c1.1-1.6,1.5-3.9,2.6-5.6c0.8-1.2,1.8-2.2,3-2.9c3.1-1.7,6.9-2.6,10.3-3.6c5.2-1.6,10.4-3.2,15.6-4.5
	c32.7-8.2,62.7-8.5,95,2.4c6.7,2.3,13.4,4.7,19.7,7.9c5.9,2.9,11.8,6,17.4,9.5c3.5,2.2,6.9,4.7,10.5,6.8c3.3-3.7,6.3-7.8,9.7-11.4
	c10-10.7,22.2-19.4,36.4-23.5c3.6-1,7.3-1.7,11-2.3c3-4.9,6.5-9.9,12.1-12c0.4-10.1,0-20.6,0-30.7c0-4.5-0.4-9.4,0.5-13.8
	c1.1-5.3,4.5-6.5,8.5-9.2H0z"/>
<path class="st1" d="M0,156.4c0.6,2.5,0.7,17.9,0,20.3V156.4z"/>
<path class="st2" d="M385.3,118.4c4.4-0.1,8.9-0.1,13.3-0.1c4.4,9.5,8.7,19,12.9,28.5c8.8,19.4,17.3,38.9,25.7,58.6
	c5.9,13.7,12.6,27.2,17.8,41.2c2.9-0.1,5.9,0.1,8.8,0.2c-0.5,4.2-0.7,8.3-1.6,12.5c-2.5,11.9-8.8,23.8-16.8,32.8
	c-12.6,14.3-30.4,23-49.4,24c-1,0.1-2.1,0.1-3.1,0.2c-19.1,0.6-37.6-6.5-51.4-19.7c-11.7-10.7-19.6-24.8-22.8-40.4
	c-0.6-3.1-1.2-6.2-1.3-9.4c3.2,0,6.6-0.2,9.8,0.3c6.9-15.2,13.2-30.8,19.8-46.1l34.2-78.1c0.5-1.1,0.8-3.1,1.7-3.9
	C383.7,118.2,384.5,118.4,385.3,118.4z"/>
<path class="st0" d="M390.7,156.1c0.3,0.2,0.5,0.3,0.6,0.6c4.3,8.5,7.8,17.5,11.7,26.1l21.8,49.2c2.1,4.9,4,10,6.5,14.7
	c-13.2-0.4-26.5,0-39.7,0c-13.7,0-27.4,0-41.1,0.2c2.2-3.9,3.9-8.2,5.7-12.3l11.5-26.4c3.5-8,6.9-16,10.5-23.9
	C382.5,175.1,387,165.7,390.7,156.1z"/>
<path class="st2" d="M112.8,118.8c5.4-0.1,10.7-0.1,16.1,0c1.5,4.6,4,9.2,6,13.7l9.6,22l27,62.3c4.4,10,9.3,19.9,13.2,30.1
	c3.2,0,6.5,0.1,9.8-0.2c-0.2,14.1-5.7,27.9-14,39.2c-12.3,16.7-30.5,26.7-50.8,29.7c-2.5,0.3-5.1,0.6-7.6,0.7
	c-17.9,0.3-37.3-6.8-50.2-19.3c-13.6-13.1-23.3-31.2-23.6-50.4c2.6-0.1,5.2,0.1,7.8,0.2c1.3-4.2,4.2-9.4,6.1-13.6
	c4.2-9.5,8.5-19,12.8-28.4C87.7,176.2,100.4,147.6,112.8,118.8z"/>
<path class="st0" d="M120.7,156.4c0.4,0.2,0.5,0.5,0.7,0.9c12.8,30,26.7,59.5,39.5,89.5c-13.4,0.1-26.7,0.1-40.1,0
	c-13.5-0.1-26.9,0-40.3,0.2L120.7,156.4z"/>
<path class="st2" d="M279.1,89c20.5,5.6,30.7,18.3,43.8,33.8c-11.5,11.5-22.7,21.4-38.5,26.7c-5.2,1.8-10.6,3-16,3l-0.8,0l0,176.3
	l0,51.5c0,8.9,0.5,18.1-0.1,27c12.8-12.6,26.3-24.2,41.6-33.9c32.8-20.8,71.4-29.9,109.9-29.5c32,0.3,63.7,6.9,93.1,19.7v44.3
	c-0.8-1.1-0.5-3-0.5-4.3c-0.3-0.2-0.7-0.4-1.1-0.5c-22.7-10-48.8-15.6-73.5-17c-8.7-0.5-17.4-0.9-26.1-0.5
	c-42,1.9-82,18.2-113.3,46.2c-6.6,5.9-13,12.6-18.6,19.5c-2.7,3.4-5,7.3-8.1,10.3c-1.6,1.6-3.6,2.8-5.7,3.6
	c-6.3,2.4-15.8,2.1-21.6-1.6c-4.2-2.6-6.9-7.7-9.8-11.6c-1.6-2.2-3.3-4.3-5.1-6.3c-16.8-19.1-37.5-34.3-60.7-44.7
	c-51.1-22.5-103-19.4-154.9-1.7c-4.3,1.5-8.6,2.8-12.8,4.4c0.1,1.4,0.1,2.5-0.3,3.8v-44.2c0.1,0,0.2,0,0.2-0.1
	c5.4-1.3,10.8-4,16-5.8c7.6-2.7,15.5-4.9,23.4-6.8c54.7-12.9,113.3-7.5,162.2,21.6c12.1,7.2,23.5,16.1,33.9,25.6
	c3,2.8,5.8,5.8,8.8,8.7c-0.3-3.4-0.2-6.8-0.2-10.2l0-16.7l0-52.9l0-173.6c-5.5-0.8-10.8-1.8-16.1-3.5c-14.6-4.9-28.9-15.9-38.9-27.5
	c12.3-15,23.5-29,43.7-33.2c4.1,6.3,10.5,11,17.9,12.5c6.9,1.4,14.1-0.1,20-4C274,95.5,277.2,92.4,279.1,89z"/>
<path class="st0" d="M0.3,403.7c4.2-1.6,8.5-2.9,12.8-4.4C65,381.7,117,378.6,168,401.1c23.2,10.4,43.9,25.6,60.7,44.7
	c1.8,2,3.5,4.2,5.1,6.3c2.9,3.9,5.6,9,9.8,11.6c5.8,3.6,15.3,3.9,21.6,1.6c2.1-0.8,4.1-2,5.7-3.6c3.1-3,5.3-6.9,8.1-10.3
	c5.6-6.9,11.9-13.7,18.6-19.5c31.3-28,71.3-44.4,113.3-46.2c8.7-0.4,17.4,0,26.1,0.5c24.7,1.4,50.8,7,73.5,17
	c0.4,0.2,0.7,0.3,1.1,0.5c0,1.3-0.2,3.2,0.5,4.3v0.2V512H257.5h-3.5H0V409.7v-2.2C0.4,406.2,0.4,405.1,0.3,403.7z M0,409.7V512
	h254.1c-2.4-1.6-6.7-2.3-9.5-3.4l-39.6-15.6c-43.4-17.1-86.8-33.9-130.4-50.4l-50.9-19.4c-5.8-2.3-11.9-4-17.6-6.6
	c-2.6-1.2-4.4-2.5-5.4-5.3c-0.2-0.4-0.3-0.9-0.5-1.3C0.1,409.9,0.1,409.8,0,409.7z M512,408.1c-0.1,0.1-0.1,0.2-0.2,0.3
	c-1.6,2.6,0.7,5.1-3.8,7.5c-3.5,1.9-7.5,3.1-11.2,4.5l-19,7.2l-69.5,26.5c-28.9,11.1-57.9,22-86.6,33.4l-41.7,16.3l-11.2,4.3
	c-1.7,0.6-3.4,1.5-5.1,2c-1.8,0.5-4.7,0.8-6.1,1.9H512V408.1z"/>
</svg>
