<?xml version="1.0" encoding="utf-8"?>
<!-- Generator: Adobe Illustrator 25.4.1, SVG Export Plug-In . SVG Version: 6.00 Build 0)  -->
<svg version="1.1" id="Layer_1" xmlns="http://www.w3.org/2000/svg" xmlns:xlink="http://www.w3.org/1999/xlink" x="0px" y="0px"
	 viewBox="0 0 512 512" style="enable-background:new 0 0 512 512;" xml:space="preserve">
<style type="text/css">
	.st0{fill:#86C305;}
</style>
<path class="st0" d="M0,0h248.5h16.2H512v251.3v9.9V512H261.5h-10.2H0V260.5v-11.4V0z M415.8,270.6c-4.9,0-9.8,0-14.6,0.1
	c-2.7,0-5.4,0.2-8.1-0.2c-1.4,19.4-8.7,39.6-19.1,56c-3.5,5.5-7.6,10.5-11.2,15.9c3.7,3.9,7.7,7.6,11.5,11.4c2.6,2.6,5,5.4,7.9,7.7
	c12.8-5.8,27.1-6.8,40.4-1.8c12.1,4.6,22.4,14,27.6,25.9c5.3,12.1,5.5,25.9,0.6,38.2c-4.8,11.9-15,22.3-26.8,27.2
	c-11.4,4.8-25.7,4.9-37.2,0.1c-12.2-5.1-21.9-14.8-26.9-27c-5.7-14.3-4.1-28.7,1.5-42.8l-9.6-9.4c-3.1-3-6.5-6-9.3-9.3
	c-2.6,2.4-5.6,4.4-8.5,6.4c-15.9,10.6-33.8,17.8-52.6,21.2c-3.3,0.6-7.2,1.5-10.5,1.4c-0.1,0-0.1,0-0.2,0c0,7.7-0.3,15.5,0,23.2
	c11.6,2.9,22.1,12.9,28.1,22.9c6.7,11.2,8.3,24.3,5.1,36.9c-3.3,13.1-12.2,23.8-23.7,30.7c-3.5,2.1-7.5,3.7-11.4,4.8
	c-2.3,0.7-5.3,0.7-7.4,2H512V261.2c-0.1,0.1-0.1,0.2-0.2,0.4c-1,1.8-0.9,4.7-1.3,6.7c-0.3,1.2-0.7,2.5-1.1,3.7
	c-1.2,3.4-2.6,6.8-4.5,9.9c-6.1,10-16.8,17.9-27.9,21.4c-12.1,3.9-25.6,2.5-36.8-3.4c-11.6-6-20.4-16.4-24.2-28.9L415.8,270.6z
	 M0,260.5V512h251.2c-2.2-1.4-5.6-1.3-8.1-2c-2.7-0.7-5.4-1.7-8-2.8c-11.3-5.1-20.9-15-25.3-26.6c-4.8-12.6-4.8-26.4,0.8-38.7
	c3.9-8.6,10.8-16.7,18.9-21.5c3.8-2.2,7.8-3.8,12-5.3c0-7.7-0.3-15.6,0-23.3c-17.5-1.4-36.2-7.3-51.6-15.8
	c-7.1-3.9-13.9-8.6-20.5-13.3c-2.1,2.5-4.7,4.7-7.1,7l-11.7,11.5c1.2,1.9,2.1,4,2.9,6.1c4.3,11.3,3.8,25.9-1.2,36.9
	c-5.4,11.8-15.9,21.6-28.2,26c-12.4,4.5-26.2,3.9-38.2-1.8c-11.6-5.5-21.5-16.2-25.7-28.4c-4.2-12-3.6-26.7,2-38.2
	c5.6-11.6,15.7-20.4,27.8-24.6c14.2-4.8,26.8-2.8,40.1,3.7c2.4-2.6,18.5-18,18.8-18.6c0.3-0.6-0.3-1.3-0.7-1.7
	c-4.9-5.8-9.2-12-12.9-18.6c-6.7-11.6-11.5-24.2-14.3-37.3c-1-4.6-1.4-9.3-2.5-13.8c-4.8-0.3-9.6-0.1-14.4-0.1
	c-2.6,0-5.3,0.2-7.9-0.3c-0.1,0.5-0.3,0.9-0.4,1.4c-3.7,11.8-12.7,22.1-23.6,27.8c-11.5,5.9-24.8,7.1-37.1,3.2
	c-14.9-4.8-27.2-16-32.3-31c-0.5-1.5-1-3-1.3-4.5c-0.4-1.9-0.3-4.9-1.3-6.6C0.1,260.7,0.1,260.6,0,260.5z M264.7,0
	c0.1,0.1,0.2,0.2,0.4,0.2c1.6,1,4.2,1.2,6,1.7c1.7,0.5,3.3,1.2,4.9,1.9c13.7,6,24.1,18.5,28.2,32.8c3.4,12.1,1.6,26-4.6,36.8
	c-6.5,11.4-16.7,19.4-29.1,23.5c0.1,7.3,0.2,14.7,0.1,22c20.6,2.2,40.5,9.1,58.1,20.1c4.7,3,8.9,6.4,13.5,9.5
	c3.5-3.8,7.2-7.5,10.9-11.2c2.8-2.8,5.5-5.7,8.4-8.3c-5.6-8.8-6.2-23.8-3.9-33.7c3-12.7,10.9-23.7,22-30.5c11.4-7.1,24.4-9.1,37.5-6
	c12.6,3,23.5,10.9,30.4,22c7,11.4,9,25,5.7,37.9c-3.3,13.4-10.9,23.7-22.8,30.8c-11.1,6.6-23.3,8.7-35.9,5.5
	c-4.2-1.1-8.5-2.6-12.3-4.9c-6.4,6.6-13.2,12.7-19.5,19.3c4.5,5.2,8.3,10.9,11.8,16.8c10.5,17.6,15.9,35,18.2,55.3
	c7.7-0.5,15.4,0.1,23.1-0.1c2.5-10.8,11.4-21.3,20.7-27.1c10.8-6.8,23.8-9.4,36.3-6.5c13.4,3.2,25,11.3,32.2,23.1
	c2.4,4,4.3,8.5,5.6,13c0.6,2.2,0.4,5.3,1.6,7.2V0H264.7z M0,0v249.1c1.3-1.8,1.4-5.3,2-7.4c0.7-2.2,1.5-4.4,2.5-6.5
	c5.3-12,15.3-21.4,27.6-26c11.6-4.4,25.4-4.3,36.7,0.8c10.6,4.7,19.1,13,24.1,23.4c1.3,2.7,2.3,5.5,3.3,8.3c3.5,0.3,7.2,0,10.7,0
	c3.7,0,7.4,0.2,11-0.1c0.5-0.4,0.7-0.8,0.8-1.4c0.3-1.8,0.4-3.7,0.7-5.6c0.6-4.3,1.4-8.6,2.5-12.9c3.9-15.4,10.6-29.7,19.4-42.9
	c2.3-3.5,4.9-6.7,7.3-10.2c-1.9-2.4-4.4-4.5-6.6-6.7c-3.8-3.9-7.5-7.8-11.5-11.6c-11.9,6.3-24.2,8.5-37.3,4.5
	c-13.1-4.1-24-13.1-30.5-25.2c-5.8-11.1-6.8-26.3-3.1-38.1c3.9-12.2,12.7-23.3,24.2-29.1c12.1-6,26.1-7.1,39-2.9
	c12.1,4,22.5,13.7,28.2,25.1c5.2,10.4,6.5,23.3,3.4,34.5c-1,3.5-2.5,6.7-3.7,10.1l-0.1,0.2c2.2,2.5,4.8,4.8,7.1,7.1
	c4,4,8,8.1,12.1,12c2.2-2.2,4.8-4,7.3-5.8c14.6-10.4,32-17.6,49.5-21.7c5-1.2,9.9-1.7,14.9-2.5c0.4-7.1,0.2-14.5,0-21.6
	c-2.9-1-5.9-2.1-8.7-3.5c-9.6-4.9-17.6-13.4-22.3-23.1c-5.5-11.3-6.1-25.6-1.9-37.4c4.8-13.5,15.1-24.2,28.3-29.6
	c3-1.2,8.6-2.1,10.8-3.2c0.1-0.1,0.2-0.1,0.3-0.2H0z M250.7,156.1c-3.9,0.3-8,0.6-11.9,1.3c-22.9,4.1-43.6,16.1-58.6,33.9
	c-17.8,20.9-26.4,48.1-24,75.5c2.3,26.5,15.1,51.1,35.6,68.1c19.5,16,44.3,24.1,69.5,22.7c26.8-1.7,52.3-13.4,70.2-33.7
	c17.4-20,26.2-46,24.6-72.5c-2-27.1-14.4-52.3-34.7-70.4C302,163.6,276.6,154.8,250.7,156.1z"/>
<path class="st0" d="M254.3,179.1c7.8-0.3,15.9,1.8,22.4,6.3c8,5.4,13.5,13.8,15.4,23.2c2.2,11.9-0.8,25.9-7.7,35.8
	c-6.8,9.8-14.2,15-25.9,17.1c-8.6,0.3-16.2-2.6-22.7-8.3c-9.7-8.8-15.6-21-16.4-34.1c-0.6-10.4,2.2-20.7,9.3-28.5
	C235.3,183.2,244.5,179.6,254.3,179.1z"/>
<path class="st0" d="M237.6,266.8c2.8,0,6,1.8,8.8,2.5c3.7,1,7.1,1.2,10.9,1.2c2.5,0,5.1-0.2,7.5-0.9c3.6-0.9,7.1-3.4,10.9-2.4
	c1.8,0.5,3.5,1.2,5.3,1.8c17.3,5.6,33.6,14.9,45.9,28.5c2.2,2.4,4.6,5,6.2,7.8l-0.2,0.3c-13.1,20.4-33.7,34.6-57.4,39.7
	c-10.4,3-26.3,2.5-36.9,0.5c-25.4-4.6-46-19.8-60.5-40.7c0.4-0.7,0.8-1.4,1.3-2.1C191.2,284.7,216.7,271.3,237.6,266.8z"/>
</svg>
