<svg width="34" height="35" viewBox="0 0 34 35" fill="none" xmlns="http://www.w3.org/2000/svg">
<path style="mix-blend-mode:multiply" opacity="0.8" d="M17.3323 35C26.2222 35 33.4289 27.7933 33.4289 18.9034C33.4289 10.0134 26.2222 2.80671 17.3323 2.80671C8.44234 2.80671 1.23563 10.0134 1.23563 18.9034C1.23563 27.7933 8.44234 35 17.3323 35Z" fill="url(#paint0_radial_30_57)"/>
<path d="M12.9265 25.853C20.0656 25.853 25.853 20.0656 25.853 12.9265C25.853 5.7874 20.0656 0 12.9265 0C5.7874 0 0 5.7874 0 12.9265C0 20.0656 5.7874 25.853 12.9265 25.853Z" fill="url(#paint1_linear_30_57)"/>
<path d="M7.74921 9.91294H9.98563V17.0304H7.74921V9.91294ZM8.86742 6.36262C9.1231 6.36262 9.37302 6.43851 9.58553 6.58068C9.79804 6.72284 9.96358 6.92488 10.0612 7.16121C10.1588 7.39753 10.184 7.6575 10.1337 7.90818C10.0834 8.15887 9.95985 8.38898 9.77867 8.56938C9.59749 8.74978 9.36684 8.87235 9.11594 8.92155C8.86504 8.97075 8.60518 8.94437 8.36928 8.84576C8.13338 8.74715 7.93207 8.58074 7.79082 8.36762C7.64958 8.15449 7.57477 7.90424 7.57588 7.64856C7.57736 7.307 7.71409 6.97992 7.95613 6.73892C8.19818 6.49792 8.52585 6.36262 8.86742 6.36262Z" fill="white"/>
<path d="M11.361 9.91294H13.4856V10.8858H13.5136C13.7278 10.5223 14.0362 10.2234 14.4062 10.0207C14.7763 9.81793 15.1942 9.7189 15.6158 9.73403C17.8522 9.73403 18.2772 11.2101 18.2772 13.1334V17.0471H16.0408V13.5807C16.0408 12.7532 16.0407 11.6853 14.889 11.6853C13.7372 11.6853 13.5583 12.5911 13.5583 13.5192V17.0471H11.3219L11.361 9.91294Z" fill="white"/>
<defs>
<radialGradient id="paint0_radial_30_57" cx="0" cy="0" r="1" gradientUnits="userSpaceOnUse" gradientTransform="translate(17.3323 18.9034) scale(16.0966)">
<stop stop-color="#000057"/>
<stop offset="0.39" stop-color="#7575A4" stop-opacity="0.54"/>
<stop offset="0.79" stop-color="#D9D9E6" stop-opacity="0.15"/>
<stop offset="1" stop-color="white" stop-opacity="0"/>
</radialGradient>
<linearGradient id="paint1_linear_30_57" x1="3.78514" y1="3.78514" x2="22.0623" y2="22.0623" gradientUnits="userSpaceOnUse">
<stop stop-color="#007BB8"/>
<stop offset="1" stop-color="#0044E9"/>
</linearGradient>
</defs>
</svg>
