<svg xmlns="http://www.w3.org/2000/svg" viewBox="0 0 517.67 32.15"><defs><style>.cls-1{fill:#2f9300;}</style></defs><g id="Layer_2" data-name="Layer 2"><g id="Layer_1-2" data-name="Layer 1"><path class="cls-1" d="M10.84,5.67A4.89,4.89,0,0,1,12.55,7L10.27,8.43a3.36,3.36,0,0,0-2.85-2A3,3,0,0,0,4.93,7.83,2.55,2.55,0,0,0,4.5,9.29a2.86,2.86,0,0,0,.93,2.2,3.21,3.21,0,0,0,2.23.85,4,4,0,0,0,1.5-.26l.23.83a11.47,11.47,0,0,0-4,2.17,4.53,4.53,0,0,0-1.7,3.57,3.62,3.62,0,0,0,.81,2.43,2.73,2.73,0,0,0,2.19,1,6.23,6.23,0,0,0,3.49-1.1,7.4,7.4,0,0,0,2.46-2.57l.83.67A11.23,11.23,0,0,1,10,22.71a8.08,8.08,0,0,1-4.67,1.48,5.66,5.66,0,0,1-3.88-1.28A4.29,4.29,0,0,1,0,19.53a4.66,4.66,0,0,1,1.36-3.27,10.59,10.59,0,0,1,3.32-2.39,3.69,3.69,0,0,1-1.93-1.3A3.43,3.43,0,0,1,2,10.42,4.17,4.17,0,0,1,3,7.66,6.42,6.42,0,0,1,5.52,5.83,8.3,8.3,0,0,1,8.69,5.2,4.93,4.93,0,0,1,10.84,5.67Z"/><path class="cls-1" d="M30.82,11.37a3.23,3.23,0,0,1,.45,1.87v8.28a1,1,0,0,0,.19.61.58.58,0,0,0,.49.25,1.13,1.13,0,0,0,.63-.24,2.63,2.63,0,0,0,.66-.67l.47.49a3.32,3.32,0,0,1-1.58,1.72,4,4,0,0,1-1.45.4c-1.67,0-2.51-.9-2.51-2.71v-7a.9.9,0,0,0-.12-.46.32.32,0,0,0-.29-.21c-.37,0-.74.41-1.13,1.23a14.35,14.35,0,0,0-1,3.48,29.28,29.28,0,0,0-.4,5.15l-3.13.67V14.38a1,1,0,0,0-.11-.46.31.31,0,0,0-.28-.21c-.33,0-.69.41-1.1,1.24a13.88,13.88,0,0,0-1,3.49,27.23,27.23,0,0,0-.43,5.13l-3,.67V13.37a1.06,1.06,0,0,0-.2-.66.61.61,0,0,0-.5-.24,1,1,0,0,0-.65.26,2.65,2.65,0,0,0-.62.72l-.49-.52a3.52,3.52,0,0,1,1.6-1.77,4.1,4.1,0,0,1,1.45-.42c1.62,0,2.43.9,2.43,2.71v3.08h.11A12.31,12.31,0,0,1,21,12.27a3,3,0,0,1,2.29-1.53,1.59,1.59,0,0,1,1.45.62,3.38,3.38,0,0,1,.42,1.88v3.29h.15a12,12,0,0,1,1.72-4.26,3,3,0,0,1,2.32-1.53A1.64,1.64,0,0,1,30.82,11.37Z"/><path class="cls-1" d="M46.16,11.54a5.37,5.37,0,0,1,1.75,2.11,6.59,6.59,0,0,1,.64,2.93,10.12,10.12,0,0,1-.73,4,6,6,0,0,1-2.1,2.66,5.46,5.46,0,0,1-3.17.93,5.08,5.08,0,0,1-2.38-.65l.8-2a2.73,2.73,0,0,0,2.2,1,2.17,2.17,0,0,0,1.92-1.41,8.13,8.13,0,0,0,.72-3.69,5.86,5.86,0,0,0-.9-3.4,2.75,2.75,0,0,0-2.33-1.31,2,2,0,0,0-1.84,1.44,10.19,10.19,0,0,0-.64,4V31.07l-3,1.08V13.45a1.19,1.19,0,0,0-.2-.71.57.57,0,0,0-.5-.27q-.49,0-1.29,1L34.61,13a4,4,0,0,1,1.28-1.58,2.91,2.91,0,0,1,1.72-.62,2.3,2.3,0,0,1,1.85.71,3.33,3.33,0,0,1,.61,2.21h.13a5.21,5.21,0,0,1,1.47-2.12,3.16,3.16,0,0,1,2-.8A4.12,4.12,0,0,1,46.16,11.54Z"/><path class="cls-1" d="M57.4,11.28A10,10,0,0,0,54.72,14a6.7,6.7,0,0,0-1,3.61,6.51,6.51,0,0,0,.44,2.3,4.88,4.88,0,0,0,1.3,1.93,3,3,0,0,0,2,.76A3,3,0,0,0,60,21.55a4,4,0,0,0,.92-2.69,5.35,5.35,0,0,0-.64-2.47,6.28,6.28,0,0,0-1.69-2.12,4.12,4.12,0,0,0-2.28-1,9.35,9.35,0,0,1,1.18-1.09c.42-.33,1-.72,1.59-1.19a5.53,5.53,0,0,1,3,2.3,6.58,6.58,0,0,1,1.1,3.7,8,8,0,0,1-.79,3.47A6.79,6.79,0,0,1,60,23.22a5.87,5.87,0,0,1-3.46,1,6,6,0,0,1-3-.76,5.78,5.78,0,0,1-2.16-2.09,5.56,5.56,0,0,1-.81-2.94,7.36,7.36,0,0,1,1.75-4.86,9.17,9.17,0,0,1,4.54-2.93Z"/><path class="cls-1" d="M82.36,13.12a5.24,5.24,0,0,1-.13,1.09,5.4,5.4,0,0,1-.33,1.13l-3.57,8.1a1,1,0,0,1-1,.64,1,1,0,0,1-1.09-.67l-2-6.85-2.69,6.82a1.27,1.27,0,0,1-.4.6,1.08,1.08,0,0,1-.61.15.91.91,0,0,1-1-.69l-2.89-8.93a2.35,2.35,0,0,0-.47-.88,1,1,0,0,0-.72-.26,1.14,1.14,0,0,0-.57.17,1.69,1.69,0,0,0-.47.4L64,13.53a5.42,5.42,0,0,1,1.41-1.81A3.14,3.14,0,0,1,67.49,11a1.57,1.57,0,0,1,1.32.66,5.8,5.8,0,0,1,.83,1.78l2.07,6.72,2-5.3-.93-3.11,3.06-1.08,2.69,9.54,1.34-3.15a3.78,3.78,0,0,0,.34-1.53,3,3,0,0,0-.48-1.69,3.32,3.32,0,0,0-1.33-1.18L80.35,10A3.26,3.26,0,0,1,82.36,13.12Z"/><path class="cls-1" d="M94.16,11.5a2.6,2.6,0,0,1,1,2.21,4.16,4.16,0,0,1-1.26,2.6,16.34,16.34,0,0,1-3,2.66A18.65,18.65,0,0,1,88,20.75a3.55,3.55,0,0,0,3.19,1.73,4.78,4.78,0,0,0,2.34-.66,6.44,6.44,0,0,0,2-1.75l.52.62a11.14,11.14,0,0,1-2.83,2.6,6.55,6.55,0,0,1-3.54.92,5.84,5.84,0,0,1-3-.75,5.36,5.36,0,0,1-2-2.05,5.89,5.89,0,0,1-.74-2.94A7.2,7.2,0,0,1,85,14.71a8.3,8.3,0,0,1,2.85-2.89,7.19,7.19,0,0,1,3.78-1.08A4,4,0,0,1,94.16,11.5Zm-5.74,1.63A4.75,4.75,0,0,0,87.2,15a6.27,6.27,0,0,0-.44,2.3,5.14,5.14,0,0,0,.67,2.67,11.65,11.65,0,0,0,2-1.51,10.58,10.58,0,0,0,1.8-2.09,3.73,3.73,0,0,0,.73-2,1.91,1.91,0,0,0-.48-1.39,1.76,1.76,0,0,0-1.33-.49A2.49,2.49,0,0,0,88.42,13.13Z"/><path class="cls-1" d="M103.68,14.46l-.08-.1a4.13,4.13,0,0,1-2.12.51,4.09,4.09,0,0,1-1.47-.25l-1.69,3.59-1.06-.46L99,14.18c0-.06-.22-.2-.49-.44A1.58,1.58,0,0,1,98,13l2.48-2.79a4.05,4.05,0,0,0,1.1,1.85,2.58,2.58,0,0,0,1.82.79,6.08,6.08,0,0,0,3.32-1.14l.46.49a13.42,13.42,0,0,0-2.56,3.31,7.86,7.86,0,0,0-1.06,3.86,3.19,3.19,0,0,0,.61,2,2.08,2.08,0,0,0,1.77.8,3.09,3.09,0,0,0,1.66-.57l.38.47a5.92,5.92,0,0,1-1.79,1.52,4.53,4.53,0,0,1-2.19.57,2.69,2.69,0,0,1-2.2-.94,3.64,3.64,0,0,1-.78-2.4,8.57,8.57,0,0,1,.79-3.32A11.33,11.33,0,0,1,103.68,14.46Z"/><path class="cls-1" d="M112.84,8.25l-1.63.52-1.06-5.41,3.59-1.21Zm.82,13.27a.92.92,0,0,0,.19.62.58.58,0,0,0,.49.24c.43,0,.87-.31,1.32-.91l.46.49a4.07,4.07,0,0,1-1.46,1.58,3.4,3.4,0,0,1-1.77.54c-1.57,0-2.36-.9-2.36-2.71V12.05L113.66,11Z"/><path class="cls-1" d="M129.13,11.27a2.52,2.52,0,0,1,.52,1.24,12.93,12.93,0,0,1,.1,1.82v7.19a1,1,0,0,0,.2.58.56.56,0,0,0,.48.28,1.06,1.06,0,0,0,.68-.25,4.52,4.52,0,0,0,.64-.66l.44.49a4.38,4.38,0,0,1-1.28,1.52,2.92,2.92,0,0,1-1.75.6,2.31,2.31,0,0,1-1.86-.71,2.9,2.9,0,0,1-.62-2V14.59a2.22,2.22,0,0,0-.08-.62.34.34,0,0,0-.36-.26c-.59,0-1.19.63-1.79,1.88a22.93,22.93,0,0,0-1.52,4.3,16.13,16.13,0,0,0-.63,3.68l-3,.67V13.37a1.1,1.1,0,0,0-.18-.64.59.59,0,0,0-.52-.26,1.08,1.08,0,0,0-.71.3,2.52,2.52,0,0,0-.58.68l-.47-.52A3.87,3.87,0,0,1,118,11.38a2.82,2.82,0,0,1,1.78-.64,2.32,2.32,0,0,1,1.89.71,3,3,0,0,1,.59,2v5h.11a19.92,19.92,0,0,1,2.08-5.28c.92-1.6,2-2.4,3.32-2.4A1.54,1.54,0,0,1,129.13,11.27Z"/><path class="cls-1" d="M143.22,11.38a4.25,4.25,0,0,1,1.8,1.81l-2.51,1a3.37,3.37,0,0,0-1-1.36,2.28,2.28,0,0,0-1.39-.48,2.7,2.7,0,0,0-2,.84,5.55,5.55,0,0,0-1.31,2.08,7.14,7.14,0,0,0-.45,2.44,7.35,7.35,0,0,0,.64,3.19,2.15,2.15,0,0,0,2.07,1.36,2.3,2.3,0,0,0,2.27-1.71,10.52,10.52,0,0,0,.63-3.67V15.78l3-1.09v7.94a9.13,9.13,0,0,1-1,4.08,9.73,9.73,0,0,1-2.8,3.44,6.13,6.13,0,0,1-3.8,1.36,3.16,3.16,0,0,1-2.38-1l2.2-2.09a2.41,2.41,0,0,0,1.94,1.08,2.22,2.22,0,0,0,2.29-1.3,9,9,0,0,0,.56-3.46L142,23a7,7,0,0,1,.21-1.89H142a8.76,8.76,0,0,1-1.68,2.27,3.21,3.21,0,0,1-2.25.86,4,4,0,0,1-3.29-1.47A5.89,5.89,0,0,1,133.61,19a9.48,9.48,0,0,1,.89-4A7.78,7.78,0,0,1,137,11.9a6.09,6.09,0,0,1,3.66-1.16A5.3,5.3,0,0,1,143.22,11.38Z"/><path class="cls-1" d="M166.82,6a3.1,3.1,0,0,1,1.06,2.46,5.1,5.1,0,0,1-.69,2.49,7.78,7.78,0,0,1-1.88,2.22,7.17,7.17,0,0,1-2.6,1.34l-.39-.67a4.31,4.31,0,0,0,1.8-1.59,4.22,4.22,0,0,0,.69-2.32A3.41,3.41,0,0,0,164,7.51a2.68,2.68,0,0,0-2.09-.89,3.79,3.79,0,0,0-2.58,1.1,7.66,7.66,0,0,0-1.91,3,11.06,11.06,0,0,0-.71,4,10.16,10.16,0,0,0,.67,3.84,6,6,0,0,0,1.88,2.6A4.37,4.37,0,0,0,162,22a5,5,0,0,0,2.24-.55,8.36,8.36,0,0,0,2.19-1.62l.69.65a10.16,10.16,0,0,1-3,2.62,7.35,7.35,0,0,1-3.76,1.05,7,7,0,0,1-3.72-1,6.53,6.53,0,0,1-2.44-2.73,9,9,0,0,1-.85-4,11.82,11.82,0,0,1,1.43-5.78,11,11,0,0,1,3.88-4.14A10,10,0,0,1,164,5,4.07,4.07,0,0,1,166.82,6Z"/><path class="cls-1" d="M175.52,11.28A9.82,9.82,0,0,0,172.84,14a6.61,6.61,0,0,0-1,3.61,6.3,6.3,0,0,0,.44,2.3,4.76,4.76,0,0,0,1.29,1.93,3,3,0,0,0,2,.76,3,3,0,0,0,2.42-1.08,4,4,0,0,0,.92-2.69,5.46,5.46,0,0,0-.63-2.47,6.3,6.3,0,0,0-1.7-2.12,4.06,4.06,0,0,0-2.27-1,9.27,9.27,0,0,1,1.17-1.09c.43-.33,1-.72,1.6-1.19a5.56,5.56,0,0,1,3,2.3,6.66,6.66,0,0,1,1.1,3.7,8.18,8.18,0,0,1-.79,3.47,6.89,6.89,0,0,1-2.28,2.73,5.82,5.82,0,0,1-3.45,1,6,6,0,0,1-3-.76,5.78,5.78,0,0,1-2.16-2.09,5.55,5.55,0,0,1-.8-2.94,7.36,7.36,0,0,1,1.74-4.86A9.21,9.21,0,0,1,175,10.68Z"/><path class="cls-1" d="M200,11.37a3.23,3.23,0,0,1,.45,1.87v8.28a1,1,0,0,0,.18.61.6.6,0,0,0,.49.25,1.19,1.19,0,0,0,.64-.24,2.63,2.63,0,0,0,.66-.67l.46.49a3.28,3.28,0,0,1-1.58,1.72,3.94,3.94,0,0,1-1.44.4c-1.68,0-2.51-.9-2.51-2.71v-7a.9.9,0,0,0-.12-.46.35.35,0,0,0-.3-.21c-.36,0-.73.41-1.12,1.23a14.29,14.29,0,0,0-1,3.48,30.27,30.27,0,0,0-.4,5.15l-3.13.67V14.38a1,1,0,0,0-.1-.46.31.31,0,0,0-.28-.21c-.33,0-.7.41-1.1,1.24a14.26,14.26,0,0,0-1,3.49,28.09,28.09,0,0,0-.43,5.13l-3,.67V13.37a1.05,1.05,0,0,0-.19-.66.62.62,0,0,0-.5-.24,1,1,0,0,0-.65.26,2.49,2.49,0,0,0-.62.72l-.49-.52a3.48,3.48,0,0,1,1.6-1.77,4,4,0,0,1,1.45-.42c1.62,0,2.43.9,2.43,2.71v3.08h.1a12.31,12.31,0,0,1,1.75-4.26,3,3,0,0,1,2.29-1.53,1.6,1.6,0,0,1,1.45.62,3.47,3.47,0,0,1,.41,1.88v3.29h.16a11.77,11.77,0,0,1,1.72-4.26,3,3,0,0,1,2.31-1.53A1.65,1.65,0,0,1,200,11.37Z"/><path class="cls-1" d="M221.13,11.37a3.15,3.15,0,0,1,.46,1.87v8.28a1,1,0,0,0,.18.61.58.58,0,0,0,.49.25,1.13,1.13,0,0,0,.63-.24,2.34,2.34,0,0,0,.66-.67L224,22a3.32,3.32,0,0,1-1.58,1.72,3.93,3.93,0,0,1-1.45.4c-1.67,0-2.51-.9-2.51-2.71v-7a1,1,0,0,0-.11-.46.35.35,0,0,0-.3-.21c-.36,0-.74.41-1.13,1.23a14.82,14.82,0,0,0-1,3.48,29.28,29.28,0,0,0-.4,5.15l-3.13.67V14.38a1.15,1.15,0,0,0-.1-.46.32.32,0,0,0-.29-.21c-.33,0-.69.41-1.1,1.24a14.31,14.31,0,0,0-1,3.49,27.23,27.23,0,0,0-.43,5.13l-3,.67V13.37a1.05,1.05,0,0,0-.19-.66.63.63,0,0,0-.51-.24,1,1,0,0,0-.65.26,2.65,2.65,0,0,0-.62.72l-.49-.52a3.49,3.49,0,0,1,1.61-1.77,4,4,0,0,1,1.44-.42c1.63,0,2.44.9,2.44,2.71v3.08h.1a12.12,12.12,0,0,1,1.75-4.26,3,3,0,0,1,2.29-1.53,1.58,1.58,0,0,1,1.44.62,3.38,3.38,0,0,1,.42,1.88v3.29h.15a12.13,12.13,0,0,1,1.72-4.26,3,3,0,0,1,2.32-1.53A1.64,1.64,0,0,1,221.13,11.37Z"/><path class="cls-1" d="M237.6,21.5a1,1,0,0,0,.18.63.61.61,0,0,0,.52.25c.34,0,.76-.3,1.26-.88L240,22a3.27,3.27,0,0,1-1.6,1.72,4.13,4.13,0,0,1-1.45.4,2.12,2.12,0,0,1-1.46-.44,2.54,2.54,0,0,1-.72-1.46,14.21,14.21,0,0,1-.22-2.88v-.78l-.11-1.78h-.1a20.78,20.78,0,0,1-1.85,5.12c-.82,1.57-1.89,2.35-3.22,2.35a1.81,1.81,0,0,1-1.31-.42,2.1,2.1,0,0,1-.54-1.16,12.75,12.75,0,0,1-.12-2V13.45a1.12,1.12,0,0,0-.18-.68.56.56,0,0,0-.49-.25q-.62,0-1.32.93l-.44-.49a3.67,3.67,0,0,1,2.29-2.07,3.32,3.32,0,0,1,.66-.13,2.39,2.39,0,0,1,2,.76,3,3,0,0,1,.6,1.93v6.91a1.94,1.94,0,0,0,.11.72c.08.17.18.26.3.26.62,0,1.2-.62,1.73-1.87a22.16,22.16,0,0,0,1.3-4.27,19.44,19.44,0,0,0,.49-3.48l3.26-1.09Z"/><path class="cls-1" d="M253,11.27a2.52,2.52,0,0,1,.52,1.24,12.93,12.93,0,0,1,.1,1.82v7.19a1,1,0,0,0,.2.58.54.54,0,0,0,.47.28,1.08,1.08,0,0,0,.69-.25,4,4,0,0,0,.63-.66L256,22a4.27,4.27,0,0,1-1.28,1.52,2.87,2.87,0,0,1-1.74.6,2.34,2.34,0,0,1-1.87-.71,3,3,0,0,1-.62-2V14.59a2.25,2.25,0,0,0-.07-.62.36.36,0,0,0-.37-.26c-.58,0-1.18.63-1.78,1.88a22.92,22.92,0,0,0-1.53,4.3,16.56,16.56,0,0,0-.62,3.68l-3,.67V13.37a1.1,1.1,0,0,0-.18-.64.57.57,0,0,0-.51-.26,1.11,1.11,0,0,0-.72.3,2.72,2.72,0,0,0-.58.68l-.46-.52a3.93,3.93,0,0,1,1.21-1.55,2.85,2.85,0,0,1,1.79-.64,2.32,2.32,0,0,1,1.89.71,3,3,0,0,1,.59,2v5h.1a19.94,19.94,0,0,1,2.09-5.28c.92-1.6,2-2.4,3.32-2.4A1.56,1.56,0,0,1,253,11.27Z"/><path class="cls-1" d="M260.78,8.25l-1.63.52-1.06-5.41,3.59-1.21Zm.82,13.27a.92.92,0,0,0,.19.62.58.58,0,0,0,.49.24c.43,0,.87-.31,1.32-.91l.46.49a4.07,4.07,0,0,1-1.46,1.58,3.4,3.4,0,0,1-1.77.54c-1.57,0-2.36-.9-2.36-2.71V12.05L261.6,11Z"/><path class="cls-1" d="M269.83,12.68v8.84a.9.9,0,0,0,.21.61.69.69,0,0,0,.54.25,2.11,2.11,0,0,0,1.4-.91l.46.49a3.56,3.56,0,0,1-1.16,1.4,4.24,4.24,0,0,1-1.35.62c-.43.1-.64.14-.64.1-1.73,0-2.59-.9-2.59-2.71V12.68h-1.84l.81-1.71h1V5.1L269.83,4V11h3.39l-.78,1.71Z"/><path class="cls-1" d="M277.77,8.25l-1.63.52-1.06-5.41,3.6-1.21Zm.83,13.27a1,1,0,0,0,.18.62.58.58,0,0,0,.49.24c.43,0,.87-.31,1.32-.91l.47.49a4.15,4.15,0,0,1-1.46,1.58,3.43,3.43,0,0,1-1.78.54c-1.57,0-2.35-.9-2.35-2.71V12.05L278.6,11Z"/><path class="cls-1" d="M292.59,11.5a2.58,2.58,0,0,1,1,2.21,4.19,4.19,0,0,1-1.25,2.6,16.76,16.76,0,0,1-3,2.66,18.18,18.18,0,0,1-2.93,1.78,3.52,3.52,0,0,0,3.18,1.73,4.73,4.73,0,0,0,2.34-.66,6.59,6.59,0,0,0,2-1.75l.51.62a11,11,0,0,1-2.83,2.6,6.52,6.52,0,0,1-3.53.92,5.84,5.84,0,0,1-3-.75,5.38,5.38,0,0,1-2.05-2.05,5.88,5.88,0,0,1-.73-2.94,7.18,7.18,0,0,1,1.07-3.76,8.42,8.42,0,0,1,2.86-2.89,7.18,7.18,0,0,1,3.77-1.08A4,4,0,0,1,292.59,11.5Zm-5.74,1.63A4.73,4.73,0,0,0,285.64,15a6.07,6.07,0,0,0-.44,2.3,5,5,0,0,0,.67,2.67,12,12,0,0,0,2-1.51,11.29,11.29,0,0,0,1.8-2.09,3.79,3.79,0,0,0,.72-2,1.91,1.91,0,0,0-.48-1.39,1.76,1.76,0,0,0-1.33-.49A2.51,2.51,0,0,0,286.85,13.13Z"/><path class="cls-1" d="M302,11.3a2.61,2.61,0,0,1-.26,1.09,5.07,5.07,0,0,1-.5.83l-.38.49a11,11,0,0,0,1.22,1.11A13.33,13.33,0,0,1,303.38,16a4.5,4.5,0,0,1,.83,1.34,5.33,5.33,0,0,1,.33,2,4.78,4.78,0,0,1-.65,2.47,4.88,4.88,0,0,1-1.8,1.78,5,5,0,0,1-2.51.64,6.72,6.72,0,0,1-2.1-.36,3.59,3.59,0,0,1-1.63-1l1.89-2.53a6.73,6.73,0,0,0,1.3,1.47,2.32,2.32,0,0,0,1.5.65,2.35,2.35,0,0,0,1.65-.65,2.1,2.1,0,0,0,.7-1.63,2.41,2.41,0,0,0-.67-1.58,25,25,0,0,0-1.92-1.89,13.27,13.27,0,0,1-1.08-1l-1.76,2.56-.93-.62,2-2.8a4.37,4.37,0,0,1-.51-2.14,3.27,3.27,0,0,1,.57-2,1.89,1.89,0,0,1,1.65-.79C301.42,9.91,302,10.37,302,11.3Zm-2.17-.15a1,1,0,0,0-.11.52,1.65,1.65,0,0,0,.11.57,5.48,5.48,0,0,0,.23.56,1.59,1.59,0,0,0,.49-.62,1.6,1.6,0,0,0,.21-.72.5.5,0,0,0-.14-.35.54.54,0,0,0-.38-.14A.43.43,0,0,0,299.84,11.15Z"/><path class="cls-1" d="M309.68,21.3a1.72,1.72,0,0,1,.53,1.23,3.25,3.25,0,0,1-.7,2,5.84,5.84,0,0,1-1.76,1.54l-.54-.46a2.46,2.46,0,0,0,.52-.64,2.15,2.15,0,0,0,.28-.79,1.74,1.74,0,0,1-1.34-1.68,1.74,1.74,0,0,1,.51-1.23,1.74,1.74,0,0,1,2.5,0Z"/><path class="cls-1" d="M328.14,5.67A4.77,4.77,0,0,1,329.84,7l-2.27,1.45a3.36,3.36,0,0,0-2.85-2,2.88,2.88,0,0,0-1.39.36,2.94,2.94,0,0,0-1.1,1,2.55,2.55,0,0,0-.43,1.46,2.86,2.86,0,0,0,.93,2.2,3.21,3.21,0,0,0,2.22.85,4,4,0,0,0,1.51-.26l.23.83a11.47,11.47,0,0,0-4,2.17,4.5,4.5,0,0,0-1.7,3.57,3.62,3.62,0,0,0,.81,2.43A2.72,2.72,0,0,0,324,22a6.25,6.25,0,0,0,3.49-1.1,7.4,7.4,0,0,0,2.46-2.57l.82.67a11.09,11.09,0,0,1-3.42,3.67,8.08,8.08,0,0,1-4.67,1.48,5.66,5.66,0,0,1-3.88-1.28,4.29,4.29,0,0,1-1.45-3.38,4.66,4.66,0,0,1,1.36-3.27A10.59,10.59,0,0,1,322,13.87a3.65,3.65,0,0,1-1.93-1.3,3.43,3.43,0,0,1-.73-2.15,4.17,4.17,0,0,1,1-2.76,6.28,6.28,0,0,1,2.52-1.83A8.3,8.3,0,0,1,326,5.2,5,5,0,0,1,328.14,5.67Z"/><path class="cls-1" d="M343,11.27a2.6,2.6,0,0,1,.51,1.24,12.72,12.72,0,0,1,.11,1.82v7.19a1,1,0,0,0,.19.58.56.56,0,0,0,.48.28,1.08,1.08,0,0,0,.69-.25,4.51,4.51,0,0,0,.63-.66l.44.49a4.38,4.38,0,0,1-1.28,1.52,2.9,2.9,0,0,1-1.75.6,2.31,2.31,0,0,1-1.86-.71,3,3,0,0,1-.62-2V14.59a2.22,2.22,0,0,0-.08-.62.34.34,0,0,0-.36-.26c-.59,0-1.18.63-1.79,1.88a22.93,22.93,0,0,0-1.52,4.3,16,16,0,0,0-.62,3.68l-3,.67V13.37a1.1,1.1,0,0,0-.18-.64.58.58,0,0,0-.52-.26,1.08,1.08,0,0,0-.71.3,2.52,2.52,0,0,0-.58.68l-.47-.52a4,4,0,0,1,1.22-1.55,2.84,2.84,0,0,1,1.78-.64,2.29,2.29,0,0,1,1.89.71,3,3,0,0,1,.6,2v5h.1a20.26,20.26,0,0,1,2.08-5.28c.93-1.6,2-2.4,3.33-2.4A1.56,1.56,0,0,1,343,11.27Z"/><path class="cls-1" d="M353.36,14.46l-.08-.1a4.6,4.6,0,0,1-3.6.26L348,18.21l-1.06-.46,1.74-3.57-.5-.44a1.63,1.63,0,0,1-.51-.73l2.48-2.79a4.05,4.05,0,0,0,1.1,1.85,2.58,2.58,0,0,0,1.82.79,6.05,6.05,0,0,0,3.31-1.14l.47.49a13.42,13.42,0,0,0-2.56,3.31,7.86,7.86,0,0,0-1.06,3.86,3.19,3.19,0,0,0,.61,2,2.08,2.08,0,0,0,1.77.8,3,3,0,0,0,1.65-.57l.39.47a5.84,5.84,0,0,1-1.8,1.52,4.46,4.46,0,0,1-2.18.57,2.69,2.69,0,0,1-2.2-.94,3.64,3.64,0,0,1-.78-2.4,8.57,8.57,0,0,1,.79-3.32A11.08,11.08,0,0,1,353.36,14.46Z"/><path class="cls-1" d="M362.52,8.25l-1.63.52-1.06-5.41,3.59-1.21Zm.82,13.27a1,1,0,0,0,.18.62.59.59,0,0,0,.5.24c.43,0,.87-.31,1.31-.91l.47.49a4.15,4.15,0,0,1-1.46,1.58,3.43,3.43,0,0,1-1.77.54c-1.57,0-2.36-.9-2.36-2.71V12.05L363.34,11Z"/><path class="cls-1" d="M376.65,11.43a4.14,4.14,0,0,1,1.59,1.92l-2.69,1.45a3.2,3.2,0,0,0-.93-1.7,2.15,2.15,0,0,0-1.45-.61,2.87,2.87,0,0,0-1.83.64,4,4,0,0,0-1.23,1.64,5.29,5.29,0,0,0-.43,2.12,7.58,7.58,0,0,0,.54,3,4.42,4.42,0,0,0,1.49,1.93,3.64,3.64,0,0,0,2.14.66c1.58,0,3.11-.91,4.57-2.72l.6.52a11.08,11.08,0,0,1-2.76,2.91,5.91,5.91,0,0,1-3.48,1,5.63,5.63,0,0,1-2.92-.76,5.33,5.33,0,0,1-2-2.15,6.68,6.68,0,0,1-.74-3.19,7.79,7.79,0,0,1,.88-3.66,6.57,6.57,0,0,1,2.55-2.65,7.54,7.54,0,0,1,3.92-1A4.22,4.22,0,0,1,376.65,11.43Z"/><path class="cls-1" d="M384.76,17.49h.11a15,15,0,0,1,1.86-4.63,3.71,3.71,0,0,1,3.18-2.12,1.57,1.57,0,0,1,1.31.54,2.67,2.67,0,0,1,.53,1.28,13.11,13.11,0,0,1,.1,1.8v7.16a1,1,0,0,0,.19.58.64.64,0,0,0,.56.28c.41,0,.84-.31,1.29-.91l.44.49a4.12,4.12,0,0,1-1.26,1.5,3,3,0,0,1-1.82.62c-1.63,0-2.45-.9-2.45-2.71V14.59a1.51,1.51,0,0,0-.12-.61.41.41,0,0,0-.4-.27c-.72,0-1.35.6-1.88,1.81a18.88,18.88,0,0,0-1.21,4.19,22.38,22.38,0,0,0-.43,3.86l-3.1.67V1.09L384.76,0Z"/><path class="cls-1" d="M399.09,8.25l-1.63.52L396.4,3.36,400,2.15Zm.83,13.27a1,1,0,0,0,.18.62.59.59,0,0,0,.49.24c.43,0,.87-.31,1.32-.91l.47.49a4.15,4.15,0,0,1-1.46,1.58,3.43,3.43,0,0,1-1.78.54c-1.56,0-2.35-.9-2.35-2.71V12.05L399.92,11Z"/><path class="cls-1" d="M415.39,11.27a2.52,2.52,0,0,1,.52,1.24,12.93,12.93,0,0,1,.1,1.82v7.19a1,1,0,0,0,.19.58.56.56,0,0,0,.48.28,1.08,1.08,0,0,0,.69-.25,4,4,0,0,0,.63-.66l.44.49a4.27,4.27,0,0,1-1.28,1.52,2.87,2.87,0,0,1-1.74.6,2.34,2.34,0,0,1-1.87-.71,3,3,0,0,1-.62-2V14.59a1.91,1.91,0,0,0-.08-.62.34.34,0,0,0-.36-.26c-.58,0-1.18.63-1.78,1.88a22.92,22.92,0,0,0-1.53,4.3,16.56,16.56,0,0,0-.62,3.68l-3,.67V13.37a1.1,1.1,0,0,0-.18-.64.57.57,0,0,0-.51-.26,1.11,1.11,0,0,0-.72.3,2.72,2.72,0,0,0-.58.68l-.46-.52a3.84,3.84,0,0,1,1.21-1.55,2.85,2.85,0,0,1,1.79-.64,2.32,2.32,0,0,1,1.89.71,3,3,0,0,1,.59,2v5h.1a19.94,19.94,0,0,1,2.09-5.28c.92-1.6,2-2.4,3.32-2.4A1.56,1.56,0,0,1,415.39,11.27Z"/><path class="cls-1" d="M429.48,11.38a4.17,4.17,0,0,1,1.79,1.81l-2.51,1a3.37,3.37,0,0,0-1-1.36,2.23,2.23,0,0,0-1.38-.48,2.74,2.74,0,0,0-2,.84,5.53,5.53,0,0,0-1.3,2.08,6.92,6.92,0,0,0-.46,2.44,7.35,7.35,0,0,0,.65,3.19,2.15,2.15,0,0,0,2.07,1.36,2.28,2.28,0,0,0,2.26-1.71,10.52,10.52,0,0,0,.64-3.67V15.78l3.05-1.09v7.94a9.15,9.15,0,0,1-1,4.08,9.81,9.81,0,0,1-2.79,3.44,6.13,6.13,0,0,1-3.8,1.36,3.16,3.16,0,0,1-2.38-1l2.2-2.09a2.39,2.39,0,0,0,1.94,1.08,2.24,2.24,0,0,0,2.29-1.3,9,9,0,0,0,.55-3.46l0-1.81a7.09,7.09,0,0,1,.2-1.89h-.2a8.56,8.56,0,0,1-1.69,2.27,3.21,3.21,0,0,1-2.25.86A3.94,3.94,0,0,1,421,22.74,5.84,5.84,0,0,1,419.86,19a9.34,9.34,0,0,1,.9-4,7.69,7.69,0,0,1,2.51-3.08,6,6,0,0,1,3.66-1.16A5.36,5.36,0,0,1,429.48,11.38Z"/><path class="cls-1" d="M446.43,9.33a3.43,3.43,0,0,0-.23,1.3V14.3h1.73a5.86,5.86,0,0,0,3.65-1.06l.44.47A5.24,5.24,0,0,1,447.26,16H446.2V20.9a5.56,5.56,0,0,1-.82,3.09,7.64,7.64,0,0,1-2.49,2.34l-.55-.62A3.71,3.71,0,0,0,443,23.2V16h-2.35l1.29-1.69H443V12.13q0-1.86,2.43-4l-3.54,0a3.88,3.88,0,0,0-3,1.57l-.55-.54a11.72,11.72,0,0,1,2.48-2.53,4.85,4.85,0,0,1,2.93-.93h6.18a15.29,15.29,0,0,0,2.51-.22,4,4,0,0,0,1.94-.79l.39.46a6.82,6.82,0,0,1-2.28,2.14,6.12,6.12,0,0,1-3.18.86h-2.14A5.8,5.8,0,0,0,446.43,9.33Z"/><path class="cls-1" d="M465.5,21.5a1,1,0,0,0,.18.63.61.61,0,0,0,.52.25c.34,0,.76-.3,1.26-.88l.44.46a3.27,3.27,0,0,1-1.6,1.72,4.13,4.13,0,0,1-1.45.4,2.11,2.11,0,0,1-1.46-.44,2.61,2.61,0,0,1-.73-1.46,15,15,0,0,1-.22-2.88v-.78l-.1-1.78h-.1a21.19,21.19,0,0,1-1.85,5.12c-.82,1.57-1.9,2.35-3.22,2.35a1.81,1.81,0,0,1-1.31-.42,2.1,2.1,0,0,1-.54-1.16,12.75,12.75,0,0,1-.12-2V13.45a1.12,1.12,0,0,0-.18-.68.56.56,0,0,0-.49-.25q-.63,0-1.32.93l-.44-.49a3.57,3.57,0,0,1,1.11-1.45,3.65,3.65,0,0,1,1.18-.62,3.2,3.2,0,0,1,.66-.13,2.4,2.4,0,0,1,2,.76,3,3,0,0,1,.6,1.93v6.91a1.75,1.75,0,0,0,.11.72c.08.17.18.26.3.26.62,0,1.2-.62,1.73-1.87a22.16,22.16,0,0,0,1.3-4.27,20.43,20.43,0,0,0,.49-3.48l3.26-1.09Z"/><path class="cls-1" d="M473.65,12.68v8.84a.9.9,0,0,0,.2.61.7.7,0,0,0,.55.25c.41,0,.87-.31,1.39-.91l.47.49a3.5,3.5,0,0,1-1.17,1.4,4.1,4.1,0,0,1-1.34.62c-.43.1-.65.14-.65.1-1.72,0-2.58-.9-2.58-2.71V12.68h-1.84l.8-1.71h1V5.1L473.65,4V11H477l-.77,1.71Z"/><path class="cls-1" d="M490.17,21.5a1,1,0,0,0,.19.63.61.61,0,0,0,.51.25c.35,0,.77-.3,1.27-.88l.44.46a3.31,3.31,0,0,1-1.6,1.72,4.13,4.13,0,0,1-1.45.4,2.11,2.11,0,0,1-1.46-.44,2.61,2.61,0,0,1-.73-1.46,15,15,0,0,1-.22-2.88v-.78l-.1-1.78h-.1a21.62,21.62,0,0,1-1.85,5.12c-.82,1.57-1.9,2.35-3.22,2.35a1.79,1.79,0,0,1-1.31-.42,2,2,0,0,1-.54-1.16,12.75,12.75,0,0,1-.12-2V13.45a1.12,1.12,0,0,0-.18-.68.57.57,0,0,0-.49-.25q-.63,0-1.32.93l-.44-.49a3.57,3.57,0,0,1,1.11-1.45,3.65,3.65,0,0,1,1.18-.62,3.08,3.08,0,0,1,.66-.13,2.4,2.4,0,0,1,2,.76,3,3,0,0,1,.59,1.93v6.91a1.73,1.73,0,0,0,.12.72c.08.17.18.26.3.26.62,0,1.2-.62,1.73-1.87a21.49,21.49,0,0,0,1.29-4.27,19.7,19.7,0,0,0,.5-3.48l3.25-1.09Z"/><path class="cls-1" d="M499.88,14.46l-.08-.1a4.19,4.19,0,0,1-2.12.51,4.14,4.14,0,0,1-1.48-.25l-1.68,3.59-1.06-.46,1.73-3.57a6.52,6.52,0,0,0-.49-.44,1.66,1.66,0,0,1-.52-.73l2.49-2.79a4,4,0,0,0,1.1,1.85,2.58,2.58,0,0,0,1.82.79,6.05,6.05,0,0,0,3.31-1.14l.47.49a13.19,13.19,0,0,0-2.56,3.31,7.86,7.86,0,0,0-1.06,3.86,3.24,3.24,0,0,0,.6,2,2.11,2.11,0,0,0,1.78.8,3.09,3.09,0,0,0,1.65-.57l.39.47a5.84,5.84,0,0,1-1.8,1.52,4.52,4.52,0,0,1-2.18.57,2.67,2.67,0,0,1-2.2-.94,3.64,3.64,0,0,1-.78-2.4A8.4,8.4,0,0,1,498,17.5,11.08,11.08,0,0,1,499.88,14.46Z"/><path class="cls-1" d="M515.78,11.5a2.58,2.58,0,0,1,1,2.21,4.19,4.19,0,0,1-1.25,2.6,16.76,16.76,0,0,1-3,2.66,18.18,18.18,0,0,1-2.93,1.78,3.52,3.52,0,0,0,3.18,1.73,4.73,4.73,0,0,0,2.34-.66,6.59,6.59,0,0,0,2-1.75l.51.62a11,11,0,0,1-2.83,2.6,6.52,6.52,0,0,1-3.53.92,5.84,5.84,0,0,1-3-.75,5.38,5.38,0,0,1-2.05-2.05,5.88,5.88,0,0,1-.73-2.94,7.18,7.18,0,0,1,1.07-3.76,8.33,8.33,0,0,1,2.86-2.89,7.18,7.18,0,0,1,3.77-1.08A4,4,0,0,1,515.78,11.5ZM510,13.13A4.73,4.73,0,0,0,508.83,15a6.07,6.07,0,0,0-.44,2.3,5,5,0,0,0,.67,2.67,12,12,0,0,0,2-1.51,11.29,11.29,0,0,0,1.8-2.09,3.79,3.79,0,0,0,.72-2,1.91,1.91,0,0,0-.48-1.39,1.76,1.76,0,0,0-1.33-.49A2.51,2.51,0,0,0,510,13.13Z"/></g></g></svg>