<?xml version="1.0" encoding="utf-8"?>
<!-- Generator: Adobe Illustrator 25.4.1, SVG Export Plug-In . SVG Version: 6.00 Build 0)  -->
<svg version="1.1" id="Layer_1" xmlns="http://www.w3.org/2000/svg" xmlns:xlink="http://www.w3.org/1999/xlink" x="0px" y="0px"
	 viewBox="0 0 100 94.4" style="enable-background:new 0 0 100 94.4;" xml:space="preserve">
<style type="text/css">
	.st0{fill-rule:evenodd;clip-rule:evenodd;fill:#86C305;}
</style>
<path class="st0" d="M33,27.1h-7.6c-0.1,0.6-0.3,1.2-0.5,1.7c-0.3,0.8-0.7,1.6-1.2,2.3c-0.4,0.5-0.9,1-1.4,1.4c-1,0.7-2.4,0.8-3.5,0
	c-0.5-0.4-1-0.8-1.4-1.3c-0.7-0.9-1.1-1.8-1.5-2.9c-0.7-2.2-0.7-4.6-0.1-6.9c0.3-1,0.8-2,1.4-2.9c0.4-0.5,0.9-1,1.4-1.4
	c1-0.7,2.4-0.8,3.5,0c0.5,0.4,1,0.8,1.4,1.3c0.4,0.5,0.7,1,1,1.6c0.2,0.3,0.3,0.7,0.4,1h7.8c-0.2-1.7-0.7-3.3-1.3-4.9
	c-0.7-1.8-1.6-3.5-2.7-5c-1.1-1.4-2.4-2.6-4-3.5c-2.7-1.6-6.1-1.6-8.8,0.1c-1.5,0.9-2.9,2.2-3.9,3.6c-1.4,1.9-2.4,3.9-3,6.2
	c-1.4,4.8-1.4,10,0.1,14.8c0.7,2.2,1.7,4.3,3.1,6.1c1.1,1.4,2.4,2.6,4,3.5c2.7,1.6,6.1,1.6,8.8-0.1c1.5-0.9,2.9-2.2,3.9-3.6
	c1.2-1.7,2.2-3.6,2.8-5.5C32.4,30.9,32.8,29,33,27.1L33,27.1z M37.2,21.1h-3.5c-0.3-1.8-0.7-3.5-1.3-5.2c-0.7-1.9-1.7-3.6-2.9-5.2
	c-1.1-1.5-2.6-2.8-4.2-3.8c-3-1.8-6.7-1.7-9.7,0.1c-1.6,1-3.1,2.3-4.2,3.9c-1.4,1.9-2.5,4.1-3.2,6.4c-1.5,5-1.4,10.3,0.1,15.3
	c0.7,2.3,1.8,4.5,3.3,6.4c1.1,1.5,2.6,2.8,4.3,3.8c3,1.8,6.7,1.7,9.7-0.1c1.6-1,3.1-2.3,4.2-3.9c1.3-1.8,2.3-3.7,3-5.8
	c0.6-1.9,1-3.9,1.2-5.8h3.5c-0.3,5.1-2.1,10.1-5.2,14.2c-3,3.8-7,6.1-11.4,6.2c-4.6,0-8.8-2.4-11.9-6.4C5.4,36.4,3.6,30.7,3.7,25
	C3.5,19.2,5.2,13.5,8.6,8.8c3-4.1,7.2-6.6,11.8-6.6c4.3,0,8.2,2.1,11.2,5.6C34.7,11.6,36.6,16.2,37.2,21.1L37.2,21.1z M56.8,23.2V25
	H20.2c-0.6,0-1.1,0.5-1.1,1.1c0,0.6,0.5,1.1,1.1,1.1h3c-0.1,0.3-0.2,0.7-0.3,1c-0.2,0.6-0.5,1.2-0.9,1.7c-0.2,0.3-0.5,0.6-0.9,0.9
	c-0.3,0.3-0.8,0.3-1.1,0c-0.3-0.2-0.6-0.5-0.9-0.8c-0.5-0.7-0.9-1.4-1.1-2.2c-0.6-1.8-0.6-3.8-0.1-5.7c0.2-0.8,0.6-1.6,1.1-2.2
	c0.2-0.3,0.5-0.6,0.9-0.9c0.3-0.3,0.8-0.3,1.1,0c0.3,0.2,0.6,0.5,0.9,0.8c0.3,0.4,0.5,0.8,0.7,1.2c0,0,0,0.1,0.1,0.1h-2.5
	c-0.6,0-1.1,0.5-1.1,1.1c0,0.6,0.5,1.1,1.1,1.1H56.8z M69.6,24.8c0-0.1-0.1-0.1-0.1-0.2l0,0l0,0l0,0c-0.1-0.1-0.1-0.3-0.1-0.4v-0.1
	c0-0.1,0-0.3,0.1-0.4l0,0l0,0l0,0c0-0.1,0.1-0.1,0.1-0.2l2.1-2.8H59v6.9h12.8L69.6,24.8L69.6,24.8z M42.6,59.1l-2.5-1.4l-0.1,0
	c-1-0.6-2.3-0.3-3,0.7c0,0-0.1,0.1-0.1,0.1c-0.5,1-0.2,2.3,0.8,2.9c0,0,0.1,0,0.1,0.1l2.5,1.4l0,0c1.1,0.6,2.4,0.2,3-0.8
	C44.1,61.1,43.7,59.7,42.6,59.1L42.6,59.1L42.6,59.1z M47.4,54.3c1.1,0.6,1.4,2,0.8,3l0,0c-0.6,1.1-2,1.4-3,0.8c0,0,0,0-0.1,0
	l-1.3-0.8c0,0-0.1,0-0.1-0.1c0,0,0,0-0.1,0l-2.5-1.4l-0.1,0L41,55.7l-1.4-0.8c-1.1-0.6-1.4-2-0.8-3l0,0c0.6-1,1.9-1.4,2.9-0.9l0.1,0
	l0.1,0L47.4,54.3C47.4,54.2,47.4,54.3,47.4,54.3L47.4,54.3z M45.3,45.4C45.3,45.4,45.3,45.4,45.3,45.4l-0.2-0.1l-3.4-2
	c-1.1-0.6-2.4-0.2-3,0.8c-0.6,1-0.2,2.4,0.8,3l0,0l0,0l3.5,2c0,0,0,0,0.1,0l5.4,3.1c0,0,0,0,0.1,0l0.1,0.1l3.2,1.9
	c0.1,0,0.1,0.1,0.2,0.1c1,0.5,2.3,0.2,2.9-0.8c0,0,0-0.1,0.1-0.1c0.5-1.1,0.2-2.4-0.8-3l-3.4-2l-0.1-0.1l-0.1,0L45.3,45.4z M55,44.4
	c0.1,0.5,0,1-0.3,1.5l0,0c-0.6,1.1-2,1.4-3,0.8c0,0,0,0-0.1,0l-5.3-3c0,0,0,0-0.1,0c-1.1-0.6-1.4-2-0.8-3l0,0c0.6-1.1,2-1.4,3-0.8
	l0,0l1.1,0.6l0,0l4.3,2.5c0,0,0,0,0,0c0.5,0.3,0.8,0.8,1,1.3C55,44.2,55,44.2,55,44.4C55,44.3,55,44.3,55,44.4L55,44.4z M63,35.6
	l-12.5,0.9l0.6,2.2l3.9,2.3c0,0,0,0,0.1,0c0.5,0.3,1,0.7,1.3,1.2L63,35.6L63,35.6z M57.7,84.6l-3-1.7c0,0,0,0-0.1,0l-19.1-11l0,0
	c0,0,0,0-0.1,0l-3.7-2.1l-3.6,6.3l25.9,15L57.7,84.6L57.7,84.6z M37.5,70.4l2.9-5.2c2.3,0.6,4.7-0.7,5.4-3c0.2-0.5,0.2-1.1,0.1-1.7
	c1.7,0.2,3.3-0.6,4.2-2.1c0,0,0.1-0.1,0.1-0.2c0.4-0.7,0.5-1.4,0.5-2.1l0.2,0.1c2.1,1.2,4.8,0.5,6-1.6c0,0,0,0,0-0.1
	c1.2-2.1,0.4-4.7-1.6-5.9L55,48.5c0.7-0.4,1.2-0.9,1.6-1.6l0,0l0,0c0.4-0.7,0.6-1.6,0.6-2.4l9.4-9.4c0.8-0.8,2.2-0.8,3,0
	c0.4,0.4,0.6,1,0.6,1.5l0,0c0,0.6-0.2,1.1-0.6,1.5l-4.1,4.1c-0.4,0.4-0.4,1.1,0,1.5c0.4,0.4,1.1,0.4,1.5,0l4.1-4.1l0,0l0,0l2.8-2.8
	c0.8-0.8,2.2-0.8,3,0l0,0c0.8,0.8,0.8,2.2,0,3l-4.1,4.1l0,0l-5.4,5.4C67,50,67,50.6,67.5,51c0.4,0.4,1.1,0.4,1.5,0l5.4-5.4
	c0.8-0.8,2.2-0.8,3,0l0,0c0.4,0.4,0.6,1,0.6,1.5l0,0c0,0.6-0.2,1.1-0.6,1.5l-4.1,4.1l0,0L69,57.1c-0.4,0.4-0.4,1.1,0,1.5
	s1.1,0.4,1.5,0l4.2-4.2c0.4-0.4,0.9-0.6,1.5-0.6l0,0c0.6,0,1.1,0.2,1.5,0.6l0.1,0.1l0,0c0.4,0.4,0.6,0.9,0.6,1.5
	c0,0.5-0.2,1-0.5,1.4l-0.1,0.1L62.8,70.9c-0.1,0.1-0.1,0.1-0.2,0.2l-1.4,1.7c0,0,0,0,0,0.1l-6.3,7.6L37.5,70.4z M72.1,89.4
	l21.1-21.1l-5.1-5.1L66.9,84.3C66.9,84.3,72.1,89.4,72.1,89.4z M70.8,77.4l12.6-12.6l-4.8-5.2L64.3,72.4L64,72.8l3.2,0.7
	c0.2,0,0.5,0.2,0.6,0.4L70.8,77.4z"/>
</svg>
