<svg width="25" height="25" viewBox="0 0 25 25" fill="none" xmlns="http://www.w3.org/2000/svg">
<path fill-rule="evenodd" clip-rule="evenodd" d="M12.5 0C19.4035 0 24.9999 5.59507 24.9999 12.5017C24.9999 19.4049 19.4035 24.9999 12.5 24.9999C5.59644 24.9999 0 19.4051 0 12.5017C0 5.59507 5.59683 0 12.5 0Z" fill="#4CAF50"/>
<path fill-rule="evenodd" clip-rule="evenodd" d="M13.6028 8.41294C13.9948 8.41291 14.3828 8.49008 14.7449 8.64005C15.107 8.79002 15.436 9.00985 15.7131 9.28698C15.9902 9.56412 16.21 9.89313 16.36 10.2552C16.5099 10.6173 16.5871 11.0054 16.587 11.3973C16.5882 11.4977 16.6289 11.5937 16.7003 11.6643C16.7717 11.7349 16.8681 11.7745 16.9685 11.7745C17.0689 11.7745 17.1653 11.7349 17.2367 11.6643C17.3081 11.5937 17.3488 11.4977 17.35 11.3973C17.3495 10.4037 16.9546 9.45089 16.252 8.74833C15.5493 8.04576 14.5965 7.65092 13.6028 7.65059C13.5524 7.65002 13.5024 7.65945 13.4557 7.67835C13.4089 7.69725 13.3664 7.72523 13.3305 7.76068C13.2947 7.79613 13.2662 7.83833 13.2468 7.88486C13.2274 7.93138 13.2174 7.9813 13.2174 8.03171C13.2174 8.08213 13.2274 8.13205 13.2468 8.17857C13.2662 8.2251 13.2947 8.2673 13.3305 8.30275C13.3664 8.3382 13.4089 8.36618 13.4557 8.38508C13.5024 8.40398 13.5524 8.41341 13.6028 8.41284V8.41294ZM13.027 10.8533C12.9766 10.8538 12.9266 10.8444 12.8798 10.8255C12.8331 10.8066 12.7906 10.7786 12.7547 10.7432C12.7189 10.7077 12.6904 10.6655 12.671 10.619C12.6516 10.5725 12.6416 10.5226 12.6416 10.4721C12.6416 10.4217 12.6516 10.3718 12.671 10.3253C12.6904 10.2788 12.7189 10.2366 12.7547 10.2011C12.7906 10.1657 12.8331 10.1377 12.8798 10.1188C12.9266 10.0999 12.9766 10.0904 13.027 10.091C13.2841 10.0909 13.5388 10.1414 13.7764 10.2397C14.014 10.338 14.2298 10.4822 14.4117 10.664C14.5935 10.8458 14.7377 11.0617 14.8361 11.2992C14.9345 11.5368 14.9851 11.7914 14.985 12.0485C14.9839 12.149 14.9432 12.2449 14.8718 12.3155C14.8004 12.3861 14.704 12.4257 14.6036 12.4257C14.5031 12.4257 14.4067 12.3861 14.3353 12.3155C14.2639 12.2449 14.2232 12.149 14.2221 12.0485C14.2221 11.8916 14.1913 11.7362 14.1313 11.5912C14.0712 11.4461 13.9832 11.3144 13.8723 11.2034C13.7613 11.0924 13.6296 11.0043 13.4846 10.9443C13.3396 10.8842 13.1842 10.8533 13.0273 10.8533H13.027ZM15.5087 20.284C14.3037 20.0712 13.1147 19.5185 12.0768 18.8845C10.8762 18.1503 9.75475 17.2352 8.76003 16.2402C7.7653 15.2452 6.84977 14.1245 6.11559 12.9228C5.48219 11.885 4.92794 10.6956 4.71632 9.49131C4.66548 9.22189 4.68081 8.94416 4.761 8.68198C4.84621 8.42247 4.99231 8.18712 5.18708 7.99561L6.77633 6.40679C6.85077 6.33285 6.95142 6.29135 7.05634 6.29135C7.16125 6.29135 7.26191 6.33285 7.33634 6.40679L10.1913 9.26113C10.2651 9.33572 10.3065 9.43641 10.3065 9.54133C10.3065 9.64626 10.2651 9.74695 10.1913 9.82153L8.67399 11.3393C8.56591 11.4466 8.49959 11.5889 8.48693 11.7407C8.47427 11.8925 8.51609 12.0438 8.6049 12.1676C9.19186 12.9787 9.84476 13.74 10.5569 14.4437C11.2602 15.1562 12.0215 15.809 12.8329 16.3954C12.9564 16.4844 13.1077 16.5264 13.2594 16.5138C13.4112 16.5012 13.5534 16.4349 13.6606 16.3267L15.1792 14.8091C15.2158 14.7723 15.2593 14.7432 15.3072 14.7234C15.3552 14.7036 15.4066 14.6935 15.4585 14.6937C15.5636 14.6935 15.6646 14.735 15.7392 14.8091L18.5938 17.6636C18.6676 17.7382 18.7089 17.8389 18.7089 17.9438C18.7089 18.0487 18.6676 18.1493 18.5938 18.2239L17.0045 19.8128C16.8143 20.01 16.5777 20.1564 16.3165 20.2387C16.0552 20.321 15.7775 20.3366 15.5087 20.284ZM13.6028 5.44961C13.5018 5.44961 13.4049 5.40947 13.3334 5.33801C13.262 5.26655 13.2218 5.16964 13.2218 5.06858C13.2218 4.96752 13.262 4.87061 13.3334 4.79915C13.4049 4.72769 13.5018 4.68755 13.6028 4.68755C14.484 4.6875 15.3565 4.86103 16.1706 5.19821C16.9847 5.53539 17.7244 6.02963 18.3475 6.6527C18.9705 7.27577 19.4647 8.01546 19.8019 8.82955C20.1391 9.64364 20.3126 10.5162 20.3126 11.3973C20.3126 11.4985 20.2724 11.5955 20.2008 11.6671C20.1293 11.7386 20.0322 11.7788 19.9311 11.7788C19.8299 11.7788 19.7329 11.7386 19.6613 11.6671C19.5898 11.5955 19.5496 11.4985 19.5496 11.3973C19.5497 9.82002 18.9232 8.30728 17.808 7.19187C16.6928 6.07646 15.1801 5.44975 13.6028 5.44961Z" fill="white"/>
</svg>
