<?xml version="1.0" encoding="UTF-8"?>
<svg xmlns="http://www.w3.org/2000/svg" id="Glyph" viewBox="0 0 64 64" width="512" height="512"><path d="M17.39,29.59a1.74584,1.74584,0,0,0-.15-.13A4.36039,4.36039,0,0,0,11.91,29.01a4.46289,4.46289,0,0,0-.72.58,4.38173,4.38173,0,0,0,0,6.19l8.44519,8.44519a1.00028,1.00028,0,1,1-1.415,1.41424L9.78,37.19a6.3734,6.3734,0,0,1-.01-9.01,6.16182,6.16182,0,0,1,1.04-.84,6.05007,6.05007,0,0,1,1.1-.57V17.56732A4.09592,4.09592,0,0,0,8.16211,13.405,3.955,3.955,0,0,0,4,17.35V37.04a4.39944,4.39944,0,0,0,.71,2.39l10.27,15.8V59a1.003,1.003,0,0,0,1,1H28.62a1.003,1.003,0,0,0,1-1V43.64a4.394,4.394,0,0,0-1.287-3.107Z"/><path d="M55.83789,13.405A4.09592,4.09592,0,0,0,52.09,17.56732V26.77a6.05007,6.05007,0,0,1,1.1.57,6.16182,6.16182,0,0,1,1.04.84,6.3734,6.3734,0,0,1-.01,9.01l-8.44018,8.4494a1.00028,1.00028,0,1,1-1.415-1.41424L52.81,35.78a4.38173,4.38173,0,0,0,0-6.19,4.46289,4.46289,0,0,0-.72-.58,4.36039,4.36039,0,0,0-5.33.44995,1.74584,1.74584,0,0,0-.15.13L35.667,40.533A4.394,4.394,0,0,0,34.38,43.64V59a1.003,1.003,0,0,0,1,1H48.02a1.003,1.003,0,0,0,1-1V55.23l10.27-15.8A4.39944,4.39944,0,0,0,60,37.04V17.35A3.955,3.955,0,0,0,55.83789,13.405Z"/><path d="M38.46,31.97a1.04617,1.04617,0,0,0,1.27-.16,1.01911,1.01911,0,0,0,.27-.73A3.90609,3.90609,0,0,1,44.08,27a.92947.92947,0,0,0,.49-.11.96954.96954,0,0,0,.52-.63A1.02442,1.02442,0,0,0,44.97,25.46,3.89255,3.89255,0,0,1,46.46,19.89a1.002,1.002,0,0,0,0-1.78,3.89264,3.89264,0,0,1-1.49-5.57,1.0187,1.0187,0,0,0-.01-1.1,1.00149,1.00149,0,0,0-.88-.44A3.90609,3.90609,0,0,1,40,6.92a1.00522,1.00522,0,0,0-1.54-.89,3.89814,3.89814,0,0,1-3.12.49,3.85785,3.85785,0,0,1-2.45-1.98,1.00346,1.00346,0,0,0-1.78,0,3.85785,3.85785,0,0,1-2.45,1.98,3.89814,3.89814,0,0,1-3.12-.49,1.03061,1.03061,0,0,0-1.27.16,1.019,1.019,0,0,0-.27.73,3.84174,3.84174,0,0,1-1.14,2.94A3.806,3.806,0,0,1,19.92,11a1.03505,1.03505,0,0,0-.49.11.96926.96926,0,0,0-.52.63,1.02424,1.02424,0,0,0,.12006.8A3.89264,3.89264,0,0,1,17.54,18.11a1.002,1.002,0,0,0,0,1.78A3.89255,3.89255,0,0,1,19.03,25.46a1.0188,1.0188,0,0,0,.00995,1.1,1.0371,1.0371,0,0,0,.88.44A3.90609,3.90609,0,0,1,24,31.08a1.00517,1.00517,0,0,0,1.54.89,3.89862,3.89862,0,0,1,3.12-.49,3.85785,3.85785,0,0,1,2.45,1.98,1.01509,1.01509,0,0,0,.64.51A1.0669,1.0669,0,0,0,32,34a1.01238,1.01238,0,0,0,.89-.54,3.85785,3.85785,0,0,1,2.45-1.98A3.89862,3.89862,0,0,1,38.46,31.97ZM32,27.47A8.47,8.47,0,1,1,40.47,19,8.48,8.48,0,0,1,32,27.47Z"/><circle cx="32" cy="18.99998" r="6.46998"/></svg>
