<svg width="33" height="35" viewBox="0 0 33 35" fill="none" xmlns="http://www.w3.org/2000/svg">
<path style="mix-blend-mode:multiply" opacity="0.8" d="M16.9785 35C25.7067 35 32.7823 27.9244 32.7823 19.1962C32.7823 10.468 25.7067 3.39241 16.9785 3.39241C8.25031 3.39241 1.17471 10.468 1.17471 19.1962C1.17471 27.9244 8.25031 35 16.9785 35Z" fill="url(#paint0_radial_30_43)"/>
<path d="M12.6913 25.3827C19.7006 25.3827 25.3827 19.7006 25.3827 12.6913C25.3827 5.68211 19.7006 0 12.6913 0C5.68211 0 0 5.68211 0 12.6913C0 19.7006 5.68211 25.3827 12.6913 25.3827Z" fill="url(#paint1_linear_30_43)"/>
<path d="M18.8559 11.0775C18.8515 10.3626 18.5645 9.67847 18.0574 9.17451C17.5504 8.67055 16.8645 8.38769 16.1496 8.3877H9.23307C8.51628 8.3877 7.82876 8.67207 7.3214 9.1784C6.81404 9.68474 6.52828 10.3717 6.52682 11.0885V14.3107C6.52828 15.0275 6.81404 15.7144 7.3214 16.2208C7.82876 16.7271 8.51628 17.0115 9.23307 17.0115H16.1496C16.8664 17.0115 17.5539 16.7271 18.0613 16.2208C18.5687 15.7144 18.8544 15.0275 18.8559 14.3107V11.0775ZM14.7883 12.9274L11.6868 14.4644C11.566 14.5303 11.1379 14.4644 11.1379 14.3052V11.1324C11.1379 10.9896 11.5551 10.9018 11.6868 10.9732L14.6565 12.587C14.7828 12.6804 14.92 12.8615 14.7883 12.9274Z" fill="white"/>
<defs>
<radialGradient id="paint0_radial_30_43" cx="0" cy="0" r="1" gradientUnits="userSpaceOnUse" gradientTransform="translate(16.9785 19.1962) scale(15.8038)">
<stop stop-color="#000057"/>
<stop offset="0.39" stop-color="#7575A4" stop-opacity="0.54"/>
<stop offset="0.79" stop-color="#D9D9E6" stop-opacity="0.15"/>
<stop offset="1" stop-color="white" stop-opacity="0"/>
</radialGradient>
<linearGradient id="paint1_linear_30_43" x1="3.71628" y1="3.71628" x2="21.6609" y2="21.6609" gradientUnits="userSpaceOnUse">
<stop stop-color="#FF0000"/>
<stop offset="1" stop-color="#9B0000"/>
</linearGradient>
</defs>
</svg>
