<svg id="Layer_1" viewBox="0 0 512 512" xmlns="http://www.w3.org/2000/svg" data-name="Layer 1"><path d="m505.45 154.98c-1.589-1.124-3.625-1.404-5.461-.755l-11.75 4.162c-10.173-20.103-31.872-35.064-61.317-42.416 13.782-11.654 22.557-29.055 22.557-48.475 0-35.004-28.478-63.482-63.482-63.482s-63.51 28.478-63.51 63.482c0 19.419 8.777 36.819 22.565 48.473-29.449 7.352-51.151 22.313-61.325 42.418l-11.75-4.162-.058.163c-10.081-8.464-23.07-13.574-37.235-13.574-31.956 0-57.954 25.998-57.954 57.954 0 17.339 7.656 32.913 19.752 43.547-26.028 6.72-45.28 20.063-54.523 37.93l-7.036-2.492c-9.033-8.049-20.926-12.953-33.948-12.953-28.158 0-51.066 22.921-51.066 51.094 0 14.736 6.282 28.027 16.299 37.356-21.782 5.938-37.98 17.272-46.043 32.333l-8.152-2.887c-1.835-.65-3.872-.368-5.461.755-1.59 1.124-2.535 2.949-2.535 4.896v84.955c0 2.54 1.6 4.804 3.994 5.651l81.014 28.687.002-.005c.626.222 1.297.349 1.999.349h19.899c.702 0 1.373-.127 1.999-.349l.002.005 81.042-28.687c2.395-.848 3.995-3.112 3.995-5.652v-62.557l23.273 8.229.002-.005c.625.221 1.296.348 1.997.348h22.932c.702 0 1.373-.127 2-.349l.002.005 93.401-33.081c2.394-.848 3.994-3.112 3.994-5.651v-78.855l25.738 9.106c.017.006.036.008.053.014.285.098.579.175.882.23.048.009.097.015.145.022.3.046.605.078.918.078h25.371s0 0 0 0c.314 0 .619-.031.92-.078.048-.007.095-.013.143-.022.303-.054.597-.132.882-.23.018-.006.037-.008.055-.014l103.323-36.596c2.394-.848 3.994-3.112 3.994-5.651v-108.369c0-1.947-.945-3.772-2.535-4.896zm-170.974-87.485c0-28.393 23.112-51.492 51.52-51.492s51.492 23.099 51.492 51.492-23.099 51.492-51.492 51.492-51.52-23.099-51.52-51.492zm25.119 57.714c8.046 3.692 16.983 5.768 26.401 5.768s18.343-2.075 26.384-5.766c30.742 5.103 54.212 18.758 64.425 37.224l-79.169 28.041h-23.308l-79.169-28.041c10.214-18.468 33.689-32.125 64.437-37.226zm-170.877 73.558c0-25.344 20.62-45.964 45.964-45.964s45.992 20.62 45.992 45.964-20.632 45.992-45.992 45.992-45.964-20.632-45.964-45.992zm22.023 52.783c7.303 3.329 15.406 5.2 23.941 5.2s16.649-1.871 23.957-5.202c27.219 4.543 48.048 16.535 57.326 32.755l-70.833 25.087h-20.871l-70.853-25.09c9.298-16.217 30.129-28.206 57.333-32.75zm-148.844 64.346c0-21.562 17.53-39.104 39.076-39.104s39.104 17.542 39.104 39.104-17.542 39.076-39.104 39.076-39.076-17.53-39.076-39.076zm18.184 46.579c6.382 2.874 13.45 4.487 20.892 4.487s14.513-1.612 20.898-4.485c23.053 3.923 40.304 13.742 48.426 27.182l-60.405 21.382h-17.838l-60.395-21.386c8.136-13.389 25.649-23.306 48.422-27.181zm-64.077 34.358 69.024 24.441v72.234l-69.024-24.441zm88.923 99.163h-7.909v-72.964h7.909zm81.042-26.929-69.052 24.442v-72.234l69.052-24.443zm9.456-85.613c-1.59-1.123-3.626-1.405-5.461-.756l-8.192 2.9c-8.061-14.947-24.283-26.352-46.036-32.323 10.036-9.331 16.331-22.63 16.331-37.378 0-7.463-1.622-14.549-4.51-20.947l69.678 24.674v85.221l-19.276-6.816v-9.679c0-1.947-.945-3.772-2.535-4.896zm44.743 23.875h-10.942v-85.947h10.942zm93.401-31.322-81.411 28.834v-85.217l81.411-28.834zm9.455-98.596c-1.59-1.124-3.625-1.405-5.461-.755l-10.148 3.594c-9.226-17.87-28.473-31.215-54.509-37.935 12.1-10.634 19.759-26.208 19.759-43.545 0-9.681-2.4-18.808-6.617-26.838l81.253 28.779v95.651l-21.742-7.692v-6.363c0-1.947-.945-3.772-2.535-4.896zm36.268-74.942h13.38v96.378h-13.38zm116.703 61.541-91.333 32.349v-95.648l91.333-32.349zm-347.04-123.717c7.16-10.64 14.564-21.642 14.564-40.086 0-34.91-28.401-63.312-63.312-63.312s-63.312 28.401-63.312 63.312c0 18.449 7.402 29.454 14.561 40.096 6.364 9.461 12.373 18.404 13.701 33.151v19.645c0 6.102 3.542 11.381 8.674 13.935v6.956c0 8.714 7.076 15.803 15.774 15.803h21.175c8.714 0 15.803-7.089 15.803-15.803v-6.957c5.132-2.555 8.674-7.837 8.674-13.952l-.055-19.248c.007-.061.027-.117.033-.179 1.277-14.875 7.321-23.855 13.719-33.362zm-100.069-40.085c0-28.298 23.023-51.321 51.321-51.321s51.321 23.023 51.321 51.321c0 14.785-5.803 23.407-12.522 33.391-5.939 8.825-12.574 18.719-15.019 33.552l-8.289.004v-47.606c8.315-1.972 15.123-5.465 19.328-10.104 3.814-4.208 5.582-9.333 5.113-14.827-.75-8.685-6.043-15.937-13.16-18.042-4.215-1.258-8.246-.664-11.655 1.719-6.113 4.271-9.718 14.151-11.228 30.913-1.275.094-2.573.151-3.89.17-1.317-.019-2.615-.076-3.89-.17-1.509-16.754-5.114-26.63-11.226-30.904-3.414-2.388-7.453-2.986-11.672-1.731-7.112 2.104-12.394 9.356-13.145 18.051-.469 5.489 1.299 10.614 5.113 14.822 4.206 4.639 11.013 8.132 19.329 10.104v47.621l-8.289.004c-2.451-14.839-9.084-24.736-15.022-33.563-6.718-9.987-12.52-18.612-12.52-33.403zm31.875 96.478c-1.959 0-3.614-1.642-3.614-3.586v-13.936l46.081-.022.04 13.958c0 1.944-1.655 3.586-3.614 3.586h-38.892zm22.947-29.525-7.002.003v-45.914c1.128.063 2.27.103 3.424.118h.153c1.155-.015 2.296-.054 3.424-.118v45.911zm12.677-60.231c1.762-15.174 5.074-18.294 5.807-18.806.135-.094.281-.196.587-.196.189 0 .439.039.785.142 2.027.6 4.267 3.396 4.628 7.574.186 2.173-.465 4-2.05 5.748-2.05 2.261-5.473 4.16-9.758 5.538zm-32.355 0c-4.284-1.378-7.708-3.277-9.758-5.539-1.584-1.748-2.236-3.574-2.05-5.742.362-4.189 2.588-6.984 4.608-7.582.345-.103.596-.141.786-.141.314 0 .465.105.604.203.733.513 4.047 3.635 5.81 18.801zm26.751 110.874h-21.175c-2.051 0-3.784-1.746-3.784-3.813v-5.315h28.772v5.315c0 2.067-1.746 3.813-3.813 3.813zm-16.568-193.735v-14.06c0-3.311 2.684-5.995 5.995-5.995s5.995 2.684 5.995 5.995v14.06c0 3.311-2.684 5.995-5.995 5.995s-5.995-2.684-5.995-5.995zm-44.297 1.011c-1.654-2.868-.67-6.534 2.198-8.188 2.867-1.654 6.534-.67 8.188 2.198l7.03 12.189c1.654 2.868.67 6.534-2.198 8.188-.943.544-1.974.803-2.99.803-2.073 0-4.089-1.076-5.199-3.001l-7.03-12.189zm-33.024 27.033c1.654-2.869 5.322-3.853 8.188-2.198l12.189 7.03c2.868 1.654 3.853 5.32 2.198 8.188-1.11 1.925-3.126 3.001-5.199 3.001-1.017 0-2.046-.258-2.99-.803l-12.189-7.03c-2.868-1.654-3.853-5.32-2.198-8.188zm-12.878 48.095c0-3.311 2.684-5.995 5.995-5.995h14.06c3.311 0 5.995 2.684 5.995 5.995s-2.684 5.995-5.995 5.995h-14.059c-3.311 0-5.995-2.684-5.995-5.995zm129.07-68.93 7.03-12.189c1.654-2.869 5.322-3.852 8.188-2.198 2.868 1.654 3.853 5.32 2.198 8.188l-7.03 12.189c-1.11 1.925-3.126 3.001-5.199 3.001-1.017 0-2.046-.258-2.99-.803-2.868-1.654-3.853-5.32-2.198-8.188zm27.865 33.855c-1.654-2.868-.67-6.534 2.198-8.188l12.189-7.03c2.867-1.655 6.534-.67 8.188 2.198s.67 6.534-2.198 8.188l-12.189 7.03c-.943.544-1.974.803-2.99.803-2.073 0-4.089-1.076-5.199-3.001zm15.398 29.079h14.06c3.311 0 5.995 2.684 5.995 5.995s-2.684 5.995-5.995 5.995h-14.06c-3.311 0-5.995-2.684-5.995-5.995s2.684-5.995 5.995-5.995zm330.836 259.817c.934 1.619 1.06 3.581.341 5.305l-14.202 34.044c-1.274 3.056-4.786 4.499-7.841 3.225-3.056-1.275-4.5-4.786-3.225-7.841l7.369-17.664-235.729 136.084c-.944.545-1.975.804-2.992.804-2.072 0-4.087-1.075-5.198-2.999-1.655-2.868-.672-6.534 2.195-8.19l235.754-136.098-19.028-2.461c-3.284-.425-5.602-3.431-5.177-6.715.425-3.283 3.43-5.603 6.715-5.177l36.595 4.734c1.854.24 3.489 1.33 4.423 2.949z"/></svg>